<svg width="18" height="22" viewBox="0 0 18 22" fill="none" xmlns="http://www.w3.org/2000/svg">
<path fill-rule="evenodd" clip-rule="evenodd" d="M5.47337 0.75H12.5266C13.203 0.749995 13.7485 0.749991 14.1925 0.780285C14.6491 0.811436 15.0528 0.877109 15.4351 1.03545C16.3539 1.41605 17.0839 2.14608 17.4646 3.06494C17.6229 3.44721 17.6886 3.85092 17.7197 4.30748C17.75 4.75148 17.75 5.29704 17.75 5.97336V18.2241C17.75 18.6641 17.75 19.0368 17.7279 19.3289C17.7066 19.6119 17.6587 19.9529 17.4711 20.2441C17.0991 20.8213 16.424 21.1277 15.7447 21.0275C15.4019 20.977 15.1138 20.7884 14.8867 20.6182C14.6524 20.4424 14.3719 20.197 14.0407 19.9072L9.49388 15.9287C9.33138 15.7865 9.23573 15.7033 9.16031 15.6454C9.11365 15.6096 9.09167 15.597 9.08583 15.594C9.03041 15.5737 8.96959 15.5737 8.91417 15.594C8.90833 15.597 8.88634 15.6096 8.83969 15.6454C8.76428 15.7033 8.66862 15.7865 8.50612 15.9287L3.95922 19.9073C3.62809 20.197 3.34762 20.4424 3.11326 20.6182C2.8862 20.7884 2.59812 20.977 2.25533 21.0275C1.57602 21.1277 0.900885 20.8213 0.528951 20.2441C0.341267 19.9529 0.293449 19.6119 0.272059 19.3289C0.24998 19.0368 0.249989 18.6641 0.25 18.2241L0.250001 5.97337C0.249996 5.29705 0.249991 4.75149 0.280286 4.30748C0.311436 3.85092 0.377109 3.44721 0.535453 3.06494C0.916055 2.14608 1.64608 1.41605 2.56494 1.03545C2.94721 0.877109 3.35092 0.811436 3.80748 0.780285C4.25149 0.749991 4.79705 0.749995 5.47337 0.75ZM9.0842 15.5932C9.0842 15.5932 9.08512 15.5936 9.08583 15.594L9.0842 15.5932ZM3.90959 2.27681C3.5294 2.30275 3.308 2.35125 3.13896 2.42127C2.58765 2.64963 2.14963 3.08765 1.92127 3.63896C1.85125 3.808 1.80275 4.0294 1.77681 4.40959C1.75041 4.79651 1.75 5.29083 1.75 6V18.1943C1.75 18.6721 1.75052 18.9873 1.76779 19.2159C1.77911 19.3656 1.79547 19.4293 1.79992 19.4461C1.85111 19.5145 1.9338 19.552 2.01894 19.5455C2.03452 19.5378 2.09326 19.5081 2.21339 19.4181C2.39678 19.2806 2.63431 19.0734 2.99388 18.7588L7.51837 14.7999C7.53936 14.7815 7.56044 14.7629 7.58162 14.7443C7.82485 14.5303 8.08166 14.3044 8.38448 14.1906C8.78128 14.0415 9.21872 14.0415 9.61552 14.1906C9.91834 14.3044 10.1751 14.5303 10.4184 14.7443C10.4396 14.7629 10.4606 14.7815 10.4816 14.7999L15.0061 18.7588C15.3657 19.0734 15.6032 19.2806 15.7866 19.4181C15.9067 19.5081 15.9655 19.5378 15.9811 19.5455C16.0662 19.552 16.1489 19.5145 16.2001 19.4461C16.2045 19.4293 16.2209 19.3656 16.2322 19.2159C16.2495 18.9873 16.25 18.6721 16.25 18.1943V6C16.25 5.29083 16.2496 4.79651 16.2232 4.40959C16.1973 4.0294 16.1487 3.808 16.0787 3.63896C15.8504 3.08765 15.4124 2.64963 14.861 2.42127C14.692 2.35125 14.4706 2.30275 14.0904 2.27681C13.7035 2.25041 13.2092 2.25 12.5 2.25H5.5C4.79083 2.25 4.29651 2.25041 3.90959 2.27681Z" fill="#B4A5FD"/>
</svg>
