<svg width="344" height="344" viewBox="0 0 344 344" fill="none" xmlns="http://www.w3.org/2000/svg">
<path d="M316.191 267.68C322.235 256.844 326.379 245.054 328.444 232.819C341.248 160.483 315.868 74.7994 243.277 44.2797C218.254 33.7602 189.53 32.1778 163.593 40.2893C134.16 49.536 115.185 72.4739 91.504 90.7403C74.7925 103.62 53.664 109.908 38.2941 124.583C22.0642 140.07 11.696 162.368 11.6203 184.886C11.5859 200.71 17.9843 216.142 30.8843 225.822C43.5091 235.303 59.5739 237.78 73.2651 245.196C88.5043 253.452 97.6753 267.9 109.874 279.638C138.02 306.772 180.173 315.173 218.041 313.9C255.2 312.648 296.528 302.135 316.191 267.68Z" fill="#6D51FF"/>
<path opacity="0.7" d="M316.191 267.68C322.235 256.844 326.379 245.054 328.444 232.819C341.248 160.483 315.868 74.7994 243.277 44.2797C218.254 33.7602 189.53 32.1778 163.593 40.2893C134.16 49.536 115.185 72.4739 91.504 90.7403C74.7925 103.62 53.664 109.908 38.2941 124.583C22.0642 140.07 11.696 162.368 11.6203 184.886C11.5859 200.71 17.9843 216.142 30.8843 225.822C43.5091 235.303 59.5739 237.78 73.2651 245.196C88.5043 253.452 97.6753 267.9 109.874 279.638C138.02 306.772 180.173 315.173 218.041 313.9C255.2 312.648 296.528 302.135 316.191 267.68Z" fill="white"/>
<path d="M267.095 258.688C268.967 259.507 273.542 259.376 273.549 259.376C273.556 259.376 272.565 256.376 272.476 256.197C271.471 254.099 268.299 250.625 265.712 250.976C265.285 251.046 264.878 251.205 264.516 251.443C264.154 251.681 263.847 251.993 263.613 252.357C263.38 252.722 263.225 253.132 263.16 253.56C263.095 253.988 263.121 254.425 263.236 254.842C263.662 256.686 265.499 258 267.095 258.688Z" fill="#6D51FF"/>
<path d="M268.678 271.966C270.618 272.255 274.705 271.065 275.028 270.976C275.701 273.321 276.529 275.619 277.505 277.856C278.069 279.156 278.674 280.449 279.3 281.736L278.537 280.642C277.009 278.881 273.033 276.376 270.632 277.395C270.237 277.574 269.884 277.834 269.597 278.159C269.31 278.483 269.094 278.865 268.964 279.278C268.834 279.692 268.793 280.128 268.843 280.559C268.894 280.99 269.034 281.405 269.256 281.777C270.143 283.394 272.262 284.192 273.989 284.44C275.716 284.688 279.239 283.752 280.181 283.497C280.429 283.986 280.663 284.481 280.91 284.97C282.094 287.329 283.284 289.676 284.385 292.008C284.77 292.833 285.121 293.659 285.472 294.485C285.142 293.996 284.86 293.59 284.784 293.535C283.256 291.774 279.28 289.263 276.879 290.288C276.485 290.468 276.133 290.729 275.846 291.053C275.559 291.378 275.344 291.759 275.214 292.173C275.085 292.586 275.043 293.022 275.093 293.452C275.143 293.882 275.282 294.298 275.503 294.67C276.39 296.28 278.516 297.078 280.236 297.333C281.956 297.588 285.142 296.734 286.242 296.432C286.58 297.285 286.93 298.145 287.206 298.984C287.391 299.569 287.612 300.112 287.763 300.704C287.914 301.296 288.086 301.867 288.244 302.438C288.513 303.552 288.795 304.701 289.029 305.795C289.194 306.552 289.345 307.281 289.49 308.011C289.118 307.192 288.348 305.596 288.265 305.465C287.027 303.497 283.449 300.415 280.945 301.055C280.528 301.174 280.141 301.379 279.809 301.657C279.477 301.936 279.207 302.281 279.017 302.67C278.827 303.059 278.721 303.484 278.706 303.917C278.691 304.35 278.767 304.781 278.929 305.183C279.562 306.917 281.543 308.024 283.201 308.534C285.038 309.091 289.091 308.582 289.6 308.534C289.841 309.744 290.068 310.928 290.288 312.042C290.721 314.512 291.052 316.721 291.299 318.592H293.005C292.71 316.659 292.317 314.347 291.808 311.76C291.561 310.529 291.279 309.222 290.976 307.873C292.199 307.387 293.392 306.826 294.547 306.194C295.881 307.646 299.301 309.339 299.741 309.552C299.273 310.694 298.812 311.802 298.365 312.84C297.416 315.021 296.521 316.968 295.73 318.592H297.574C298.262 317.079 299.005 315.352 299.789 313.446C300.264 312.283 300.752 311.031 301.241 309.744C301.729 309.848 305.747 310.666 307.619 310.24C309.311 309.861 311.368 308.898 312.125 307.22C312.317 306.831 312.425 306.407 312.442 305.975C312.459 305.542 312.385 305.111 312.225 304.708C312.065 304.306 311.822 303.942 311.512 303.64C311.202 303.338 310.832 303.104 310.426 302.954C307.956 302.128 304.179 304.935 302.796 306.807C302.713 306.917 301.963 308.217 301.502 309.043C301.702 308.513 301.894 308.004 302.094 307.46C302.486 306.387 302.851 305.3 303.243 304.137L303.759 302.41C303.945 301.839 304.068 301.206 304.227 300.601C304.557 299.191 304.832 297.746 305.073 296.28C306.016 296.624 309.38 297.794 311.12 297.656C312.861 297.519 315.035 296.9 316.04 295.358C316.289 295.003 316.46 294.6 316.543 294.174C316.625 293.748 316.617 293.31 316.519 292.887C316.421 292.465 316.236 292.068 315.974 291.722C315.712 291.376 315.381 291.089 315.001 290.88C312.682 289.682 308.527 291.891 306.876 293.535C306.779 293.632 305.727 294.911 305.162 295.675C305.3 294.794 305.438 293.92 305.555 293.026C305.871 290.439 306.119 287.811 306.373 285.19C306.449 284.385 306.538 283.587 306.621 282.789C306.958 282.912 310.928 284.392 312.875 284.254C314.616 284.13 316.79 283.497 317.794 281.949C318.043 281.595 318.214 281.192 318.297 280.766C318.379 280.341 318.371 279.903 318.273 279.481C318.175 279.059 317.99 278.663 317.728 278.317C317.466 277.972 317.135 277.686 316.755 277.477C314.437 276.28 310.281 278.489 308.63 280.126C308.506 280.25 306.999 282.142 306.635 282.644C306.82 280.883 307.027 279.128 307.323 277.408C307.672 275.085 308.173 272.787 308.823 270.528C308.981 270.584 313.116 272.145 315.118 272.008C316.852 271.884 319.026 271.244 320.03 269.703C320.279 269.349 320.451 268.946 320.534 268.521C320.617 268.096 320.61 267.658 320.512 267.237C320.415 266.815 320.23 266.418 319.969 266.072C319.708 265.727 319.377 265.44 318.998 265.231C316.68 264.034 312.524 266.235 310.873 267.88C310.742 268.01 309.118 270.04 308.85 270.432C308.85 270.301 308.912 270.164 308.953 270.033C309.674 267.781 310.595 265.599 311.705 263.511C312.297 262.355 312.93 261.275 313.563 260.243C314.306 260.614 317.691 262.266 319.521 262.341C321.351 262.417 323.491 262.011 324.66 260.594C324.946 260.268 325.161 259.887 325.289 259.473C325.418 259.06 325.459 258.624 325.408 258.194C325.357 257.763 325.217 257.349 324.996 256.976C324.774 256.604 324.477 256.282 324.124 256.032C321.95 254.588 317.581 256.321 315.758 257.773C315.654 257.849 314.739 258.764 314.079 259.438C314.375 258.977 314.671 258.495 314.966 258.062C316.053 256.418 317.154 254.98 318.138 253.714C318.702 253.026 319.232 252.338 319.727 251.774C320.642 251.774 324.337 251.643 325.919 250.886C327.502 250.129 329.297 248.767 329.676 246.971C329.779 246.551 329.793 246.113 329.716 245.686C329.64 245.26 329.475 244.854 329.232 244.496C328.988 244.137 328.673 243.833 328.305 243.604C327.937 243.376 327.525 243.226 327.096 243.167C324.502 242.892 321.42 246.442 320.477 248.574C320.395 248.753 319.445 251.78 319.493 251.78H319.548C319.053 252.338 318.537 252.943 317.98 253.617C316.968 254.863 315.833 256.28 314.698 257.904C313.461 259.641 312.326 261.449 311.299 263.318C310.138 265.408 309.166 267.598 308.396 269.861C308.399 269.889 308.399 269.916 308.396 269.944C308.396 269.18 308.396 267.04 308.355 266.875C308.059 264.57 306.126 260.284 303.539 259.809C303.11 259.742 302.673 259.766 302.254 259.879C301.836 259.992 301.445 260.192 301.109 260.466C300.773 260.74 300.498 261.082 300.303 261.469C300.108 261.856 299.996 262.28 299.975 262.713C299.83 264.543 301.158 266.38 302.452 267.529C303.917 268.836 307.956 270.102 308.3 270.198C307.572 272.52 307 274.887 306.587 277.285C306.339 278.661 306.132 280.092 305.94 281.509C305.94 280.821 305.94 280.257 305.905 280.174C305.61 277.869 303.669 273.583 301.089 273.108C300.661 273.041 300.224 273.065 299.806 273.178C299.388 273.292 298.998 273.492 298.662 273.766C298.327 274.04 298.053 274.381 297.858 274.768C297.663 275.155 297.552 275.579 297.532 276.012C297.381 277.842 298.716 279.679 300.009 280.828C301.303 281.977 304.77 283.153 305.678 283.442C305.616 283.986 305.541 284.529 305.479 285.08C305.162 287.694 304.86 290.308 304.488 292.861C304.357 293.762 304.199 294.643 304.034 295.524C304.034 294.939 304.034 294.443 304.034 294.368C303.731 292.063 301.798 287.777 299.218 287.302C298.79 287.235 298.353 287.259 297.935 287.372C297.516 287.485 297.127 287.685 296.791 287.959C296.455 288.233 296.181 288.575 295.987 288.962C295.792 289.349 295.681 289.772 295.661 290.205C295.51 292.035 296.838 293.872 298.138 295.021C299.438 296.17 302.562 297.23 303.642 297.581C303.456 298.482 303.264 299.383 303.043 300.243C302.871 300.828 302.754 301.406 302.555 301.984C302.355 302.562 302.183 303.133 301.998 303.697C301.605 304.777 301.213 305.892 300.8 306.931C300.525 307.653 300.243 308.341 299.968 309.036C300.106 308.141 300.346 306.38 300.346 306.236C300.323 304.185 299.77 302.176 298.743 300.401C298.751 300.171 298.737 299.941 298.702 299.713C298.647 299.284 298.503 298.87 298.278 298.5C298.053 298.13 297.752 297.811 297.396 297.565C297.04 297.318 296.636 297.149 296.21 297.069C295.784 296.989 295.346 296.999 294.925 297.099C292.407 297.787 290.797 302.19 290.687 304.516C290.687 304.653 290.769 306.153 290.845 307.096C290.714 306.545 290.597 306.016 290.46 305.451C290.198 304.337 289.903 303.229 289.586 302.011C289.414 301.447 289.242 300.869 289.063 300.291C288.884 299.713 288.657 299.122 288.458 298.53C287.956 297.154 287.384 295.778 286.779 294.45C287.756 294.216 291.21 293.343 292.593 292.276C293.976 291.21 295.434 289.483 295.42 287.646C295.433 287.213 295.355 286.781 295.19 286.38C295.025 285.979 294.777 285.618 294.463 285.319C294.149 285.02 293.775 284.791 293.366 284.647C292.957 284.503 292.523 284.446 292.09 284.481C289.497 284.763 287.274 288.898 286.779 291.175C286.779 291.32 286.593 292.992 286.524 293.927C286.153 293.116 285.788 292.304 285.389 291.499C284.233 289.166 282.988 286.834 281.75 284.509C281.371 283.821 281.007 283.084 280.635 282.369C280.986 282.293 285.107 281.337 286.662 280.14C288.038 279.087 289.504 277.353 289.49 275.51C289.502 275.077 289.423 274.646 289.257 274.246C289.092 273.846 288.844 273.485 288.53 273.187C288.215 272.889 287.842 272.661 287.434 272.517C287.025 272.373 286.591 272.317 286.16 272.352C283.566 272.634 281.344 276.762 280.848 279.046C280.807 279.218 280.594 281.626 280.566 282.238C279.748 280.67 278.95 279.094 278.227 277.512C277.238 275.376 276.387 273.179 275.682 270.934C275.847 270.9 280.154 269.923 281.743 268.698C283.119 267.639 284.591 265.912 284.577 264.068C284.59 263.635 284.51 263.204 284.344 262.803C284.178 262.402 283.93 262.041 283.615 261.743C283.3 261.445 282.926 261.217 282.517 261.073C282.108 260.93 281.673 260.874 281.241 260.91C278.647 261.192 276.425 265.32 275.929 267.598C275.888 267.783 275.661 270.35 275.647 270.845C275.647 270.714 275.551 270.584 275.516 270.453C274.857 268.181 274.402 265.856 274.154 263.504C274.01 262.211 273.941 260.965 273.907 259.754C274.725 259.651 278.475 259.149 280.03 258.213C281.585 257.278 283.16 255.75 283.353 253.92C283.413 253.491 283.382 253.054 283.262 252.637C283.141 252.221 282.934 251.834 282.655 251.503C282.375 251.172 282.028 250.903 281.637 250.715C281.247 250.527 280.821 250.424 280.388 250.411C277.78 250.411 275.09 254.264 274.368 256.48C274.326 256.603 274.065 257.856 273.893 258.798C273.893 258.248 273.893 257.684 273.893 257.154C273.893 255.186 274.024 253.377 274.147 251.78C274.223 250.872 274.312 250.054 274.402 249.29C275.159 248.767 278.172 246.641 279.101 245.114C280.03 243.586 280.704 241.488 280.016 239.796C279.871 239.387 279.641 239.014 279.342 238.7C279.043 238.386 278.681 238.138 278.28 237.974C277.879 237.809 277.447 237.73 277.014 237.743C276.581 237.756 276.155 237.86 275.764 238.048C273.446 239.245 272.84 243.91 273.225 246.208C273.225 246.407 274.134 249.455 274.168 249.428L274.216 249.393C274.113 250.129 274.017 250.92 273.92 251.787C273.762 253.384 273.597 255.193 273.549 257.174C273.478 259.306 273.53 261.44 273.707 263.566C273.891 265.949 274.287 268.312 274.89 270.625C274.887 270.652 274.887 270.68 274.89 270.707C274.478 270.061 273.267 268.299 273.164 268.169C271.636 266.414 267.66 263.903 265.258 264.921C264.864 265.102 264.512 265.363 264.225 265.689C263.939 266.014 263.723 266.396 263.594 266.81C263.464 267.224 263.423 267.66 263.472 268.091C263.522 268.522 263.662 268.937 263.882 269.311C264.832 270.921 266.944 271.719 268.678 271.966Z" fill="#6D51FF"/>
<path d="M313.398 259.72C313.439 259.72 314.23 256.672 314.258 256.473C314.581 254.168 313.845 249.524 311.506 248.389C311.11 248.211 310.682 248.118 310.249 248.117C309.815 248.115 309.386 248.205 308.99 248.38C308.593 248.555 308.238 248.812 307.947 249.134C307.657 249.455 307.437 249.834 307.302 250.246C306.676 251.98 307.474 254.099 308.417 255.564C309.517 257.312 313.398 259.713 313.398 259.72Z" fill="#6D51FF"/>
<path d="M19.5598 258.688C21.4312 259.507 26.0133 259.376 26.0133 259.376C26.0133 259.376 25.0294 256.376 24.9469 256.197C23.9424 254.099 20.7638 250.625 18.177 250.976C17.7497 251.046 17.3421 251.205 16.9804 251.443C16.6188 251.681 16.3112 251.993 16.0777 252.357C15.8441 252.722 15.6898 253.132 15.6248 253.56C15.5598 253.988 15.5854 254.425 15.7002 254.842C16.1336 256.686 17.9706 258 19.5598 258.688Z" fill="#6D51FF"/>
<path d="M21.1422 271.966C23.0824 272.255 27.1691 271.065 27.4925 270.976C28.1658 273.321 28.9932 275.619 29.9693 277.856C30.5334 279.156 31.1389 280.449 31.765 281.736C31.3934 281.192 31.077 280.711 31.0013 280.642C29.4739 278.881 25.4973 276.376 23.0962 277.395C22.7021 277.575 22.3503 277.835 22.0636 278.16C21.7768 278.485 21.5616 278.866 21.4319 279.279C21.3021 279.693 21.2607 280.129 21.3104 280.559C21.36 280.989 21.4997 281.404 21.7202 281.777C22.6077 283.394 24.7336 284.192 26.4536 284.44C28.1736 284.688 31.703 283.752 32.6456 283.497C32.8933 283.986 33.1272 284.481 33.3749 284.97C34.5582 287.329 35.7485 289.676 36.8149 292.008C37.2002 292.833 37.551 293.659 37.9088 294.485C37.5717 293.996 37.2896 293.59 37.2208 293.535C35.7003 291.774 31.7168 289.263 29.3157 290.288C28.9216 290.468 28.5698 290.729 28.2831 291.053C27.9964 291.378 27.7811 291.759 27.6514 292.173C27.5216 292.586 27.4802 293.022 27.5299 293.452C27.5796 293.882 27.7192 294.298 27.9397 294.67C28.8272 296.28 30.9531 297.078 32.6731 297.333C34.3931 297.588 37.5854 296.734 38.6794 296.432C39.0165 297.285 39.3674 298.145 39.6494 298.984C39.8283 299.569 40.0485 300.112 40.1998 300.704C40.3512 301.296 40.5232 301.867 40.6814 302.438C40.9498 303.552 41.2318 304.701 41.4658 305.795C41.6378 306.552 41.7822 307.281 41.9336 308.011C41.5552 307.192 40.7846 305.596 40.709 305.465C39.4637 303.497 35.893 300.415 33.3886 301.055C32.9721 301.174 32.5852 301.379 32.2531 301.657C31.921 301.936 31.6511 302.281 31.461 302.67C31.2709 303.059 31.1648 303.484 31.1496 303.917C31.1344 304.35 31.2105 304.781 31.3728 305.183C31.9989 306.917 33.9803 308.024 35.6453 308.534C37.4754 309.091 41.5277 308.582 42.0368 308.534C42.2776 309.744 42.5046 310.928 42.7248 312.042C43.1582 314.512 43.4885 316.721 43.7362 318.592H45.4493C45.1466 316.659 44.7613 314.347 44.2453 311.76C44.0045 310.529 43.7224 309.222 43.4128 307.873C44.6445 307.378 45.844 306.805 47.0042 306.16C48.3389 307.612 51.7582 309.304 52.1986 309.517C51.7376 310.66 51.2698 311.767 50.8226 312.806C49.88 314.987 48.9787 316.934 48.1875 318.558H50.0382C50.7262 317.044 51.4693 315.317 52.2467 313.412C52.7283 312.249 53.2099 310.997 53.6984 309.71C54.1938 309.813 58.2048 310.632 60.0762 310.205C61.7686 309.827 63.8258 308.864 64.5894 307.185C64.781 306.796 64.8887 306.372 64.9054 305.939C64.9222 305.506 64.8477 305.074 64.6868 304.672C64.5259 304.27 64.2822 303.906 63.9714 303.604C63.6607 303.302 63.2899 303.069 62.8832 302.92C60.4133 302.094 56.6362 304.901 55.2533 306.772C55.1707 306.882 54.4208 308.183 53.9598 309.008C54.1594 308.479 54.3589 307.969 54.5515 307.426C54.9437 306.353 55.3083 305.266 55.7005 304.103L56.2165 302.376C56.4022 301.805 56.5261 301.172 56.6843 300.567C57.0214 299.156 57.2898 297.711 57.5306 296.246C58.4731 296.59 61.8374 297.76 63.585 297.622C65.3325 297.484 67.4928 296.865 68.4973 295.324C68.7455 294.969 68.9164 294.566 68.9989 294.14C69.0815 293.715 69.0739 293.277 68.9766 292.855C68.8794 292.433 68.6946 292.036 68.4342 291.69C68.1739 291.344 67.8438 291.056 67.4653 290.845C65.1467 289.648 60.9912 291.856 59.34 293.501C59.2368 293.597 58.1842 294.877 57.62 295.64C57.7576 294.76 57.9021 293.886 58.0122 292.992C58.3355 290.405 58.5763 287.777 58.8309 285.155C58.9066 284.35 58.996 283.552 59.0786 282.754C59.4157 282.878 63.3854 284.357 65.3394 284.22C67.0731 284.096 69.2472 283.463 70.2517 281.915C70.5005 281.56 70.6718 281.157 70.7544 280.732C70.837 280.307 70.8291 279.869 70.731 279.447C70.633 279.025 70.4471 278.628 70.1855 278.283C69.9239 277.938 69.5925 277.651 69.2128 277.443C66.9011 276.246 62.7456 278.454 61.0944 280.092C60.9706 280.216 59.457 282.108 59.0992 282.61C59.285 280.848 59.4845 279.094 59.7872 277.374C60.1392 275.05 60.6425 272.752 61.2939 270.494C61.4453 270.549 65.5802 272.111 67.5822 271.973C69.316 271.849 71.497 271.21 72.5014 269.668C72.7503 269.314 72.9216 268.911 73.0042 268.486C73.0868 268.06 73.0788 267.622 72.9808 267.2C72.8828 266.778 72.6969 266.382 72.4353 266.037C72.1737 265.691 71.8422 265.405 71.4626 265.196C69.144 263.999 64.9885 266.201 63.3373 267.845C63.2066 267.976 61.5829 270.006 61.3146 270.398C61.3558 270.267 61.3765 270.129 61.4178 269.999C62.1387 267.747 63.0597 265.564 64.1698 263.476C64.7614 262.321 65.3944 261.24 66.0342 260.208C66.7704 260.58 70.1622 262.231 71.9854 262.307C73.8086 262.383 75.9621 261.977 77.1248 260.559C77.4117 260.235 77.6269 259.853 77.7564 259.439C77.8858 259.025 77.9265 258.589 77.8758 258.159C77.8252 257.728 77.6843 257.313 77.4625 256.941C77.2406 256.569 76.9427 256.247 76.5882 255.998C74.4141 254.553 70.0453 256.287 68.2221 257.739C68.1258 257.814 67.2038 258.729 66.5502 259.404C66.8392 258.943 67.135 258.461 67.4309 258.028C68.5179 256.383 69.6187 254.945 70.6026 253.679C71.1736 252.991 71.6965 252.303 72.1918 251.739C73.1138 251.739 76.8014 251.608 78.3838 250.852C79.9662 250.095 81.7619 248.733 82.1403 246.937C82.2459 246.516 82.2614 246.078 82.1858 245.65C82.1102 245.223 81.9452 244.816 81.7017 244.457C81.4581 244.098 81.1415 243.795 80.7725 243.566C80.4035 243.338 79.9904 243.19 79.5603 243.132C76.9666 242.857 73.8912 246.407 72.9418 248.54C72.8592 248.719 71.9098 251.746 71.9579 251.746H72.013C71.5176 252.303 71.0016 252.909 70.4443 253.583C69.433 254.828 68.2978 256.246 67.1694 257.869C65.9183 259.606 64.7697 261.414 63.7294 263.284C62.5735 265.376 61.602 267.566 60.8261 269.827V269.909C60.8261 269.146 60.8261 267.006 60.7848 266.841C60.4821 264.536 58.5488 260.25 55.9688 259.775C55.5408 259.708 55.1034 259.732 54.6852 259.845C54.2671 259.958 53.8774 260.158 53.5418 260.432C53.2062 260.706 52.9321 261.048 52.7374 261.435C52.5427 261.822 52.4317 262.246 52.4118 262.678C52.2605 264.508 53.5883 266.345 54.8886 267.494C56.3472 268.802 60.3926 270.068 60.7366 270.164C60.0038 272.484 59.4291 274.852 59.0166 277.25C58.769 278.626 58.5626 280.057 58.3699 281.475C58.3699 280.787 58.3699 280.222 58.3699 280.14C58.0741 277.835 56.1339 273.549 53.5539 273.074C53.1256 273.007 52.6879 273.031 52.2693 273.144C51.8507 273.257 51.4607 273.457 51.1245 273.731C50.7884 274.005 50.5136 274.346 50.3182 274.733C50.1227 275.12 50.0109 275.544 49.9901 275.977C49.8387 277.808 51.1734 279.644 52.4669 280.793C53.7603 281.942 57.2278 283.119 58.1429 283.408C58.0741 283.951 57.9984 284.495 57.9365 285.045C57.62 287.66 57.3242 290.274 56.9458 292.827C56.815 293.728 56.6568 294.608 56.4986 295.489C56.4986 294.904 56.4986 294.409 56.4986 294.333C56.1958 292.028 54.2626 287.742 51.6826 287.268C51.2546 287.2 50.8172 287.224 50.399 287.337C49.9808 287.451 49.5912 287.651 49.2556 287.925C48.9199 288.199 48.6458 288.54 48.4511 288.927C48.2564 289.314 48.1455 289.738 48.1256 290.171C47.9742 292.001 49.309 293.838 50.6024 294.987C51.8958 296.136 55.0262 297.195 56.1064 297.546C55.9138 298.448 55.7211 299.349 55.501 300.209C55.3358 300.794 55.212 301.372 55.0125 301.949C54.813 302.527 54.641 303.098 54.4621 303.663C54.0699 304.743 53.6709 305.857 53.2581 306.896C52.9829 307.619 52.7008 308.307 52.4256 309.001C52.5632 308.107 52.804 306.346 52.8109 306.201C52.781 304.151 52.2268 302.142 51.201 300.367C51.2082 300.137 51.1944 299.907 51.1597 299.679C51.1048 299.249 50.9602 298.836 50.7351 298.466C50.5101 298.096 50.2098 297.777 49.8536 297.53C49.4974 297.284 49.0933 297.115 48.6676 297.035C48.2419 296.954 47.8041 296.965 47.3826 297.065C44.8645 297.753 43.2546 302.156 43.1445 304.481C43.1445 304.619 43.227 306.119 43.3027 307.061C43.172 306.511 43.055 305.981 42.9174 305.417C42.656 304.302 42.3602 303.195 42.0437 301.977C41.8717 301.413 41.6997 300.835 41.5208 300.257C41.3419 299.679 41.1149 299.087 40.9154 298.496C40.4131 297.12 39.8421 295.744 39.2366 294.416C40.2136 294.182 43.6674 293.308 45.0502 292.242C46.4331 291.175 47.8986 289.448 47.8848 287.612C47.8958 287.178 47.8156 286.747 47.6494 286.347C47.4833 285.946 47.2349 285.585 46.9203 285.287C46.6058 284.989 46.2321 284.76 45.8234 284.615C45.4147 284.47 44.9802 284.413 44.548 284.447C41.9542 284.729 39.732 288.864 39.2366 291.141C39.2366 291.285 39.0509 292.957 38.989 293.893C38.6174 293.081 38.2528 292.269 37.8469 291.464C36.691 289.132 35.4458 286.8 34.2142 284.474C33.8358 283.786 33.4643 283.05 33.0928 282.335C33.4437 282.259 37.5717 281.303 39.1197 280.105C40.4957 279.053 41.968 277.319 41.9542 275.475C41.9664 275.042 41.8869 274.611 41.7211 274.21C41.5553 273.809 41.3068 273.448 40.9919 273.15C40.6769 272.852 40.3027 272.624 39.8935 272.48C39.4844 272.337 39.0495 272.281 38.6174 272.317C36.0237 272.599 33.8014 276.727 33.3061 279.012C33.3061 279.184 33.0515 281.592 33.024 282.204C32.2122 280.635 31.4141 279.06 30.6848 277.477C29.6954 275.342 28.8451 273.145 28.1392 270.9C28.3043 270.866 32.6112 269.889 34.2005 268.664C35.5765 267.604 37.0488 265.878 37.035 264.034C37.0472 263.6 36.9677 263.169 36.8019 262.769C36.6361 262.368 36.3876 262.007 36.0727 261.709C35.7577 261.411 35.3835 261.183 34.9743 261.039C34.5652 260.895 34.1303 260.84 33.6982 260.876C31.1045 261.158 28.8822 265.286 28.3869 267.563C28.3525 267.749 28.1186 270.315 28.1117 270.811C28.0704 270.68 28.0154 270.549 27.9741 270.418C27.3193 268.158 26.8657 265.844 26.6187 263.504C26.4742 262.211 26.4054 260.965 26.371 259.754C27.1898 259.651 30.9394 259.149 32.4942 258.213C34.0491 257.278 35.6246 255.75 35.8173 253.92C35.8775 253.491 35.8464 253.054 35.7261 252.637C35.6057 252.22 35.3989 251.834 35.119 251.503C34.8392 251.172 34.4926 250.903 34.102 250.715C33.7113 250.527 33.2854 250.424 32.852 250.411C30.2445 250.411 27.5544 254.264 26.832 256.48C26.832 256.603 26.5362 257.856 26.3573 258.798C26.3573 258.248 26.3573 257.684 26.3573 257.154C26.3573 255.186 26.488 253.377 26.6118 251.78C26.6875 250.872 26.777 250.054 26.8664 249.29C27.6232 248.767 30.6366 246.641 31.5654 245.114C32.4942 243.586 33.2098 241.488 32.5355 239.775C32.3886 239.365 32.1565 238.99 31.8545 238.676C31.5525 238.361 31.1874 238.115 30.7832 237.952C30.379 237.788 29.9449 237.713 29.5094 237.729C29.0738 237.746 28.6467 237.855 28.2562 238.048C25.9445 239.245 25.3322 243.91 25.7174 246.208C25.7174 246.407 26.6256 249.455 26.6669 249.428L26.7082 249.393C26.605 250.129 26.5086 250.92 26.4123 251.787C26.2541 253.384 26.089 255.193 26.0477 257.174C25.9707 259.306 26.0213 261.44 26.199 263.566C26.383 265.949 26.779 268.312 27.3824 270.625V270.707C26.9696 270.061 25.7656 268.299 25.6555 268.169C24.1282 266.414 20.1515 263.903 17.7504 264.921C17.3561 265.102 17.0042 265.363 16.7174 265.689C16.4307 266.014 16.2155 266.396 16.0857 266.81C15.956 267.224 15.9147 267.66 15.9644 268.091C16.0141 268.522 16.1538 268.937 16.3744 269.311C17.2963 270.921 19.4222 271.719 21.1422 271.966Z" fill="#6D51FF"/>
<path d="M65.8622 259.72C65.9035 259.72 66.6947 256.672 66.7222 256.473C67.0456 254.168 66.3094 249.524 63.9702 248.389C63.5749 248.211 63.1466 248.118 62.7131 248.117C62.2797 248.115 61.8507 248.205 61.4543 248.38C61.0578 248.555 60.7026 248.812 60.4118 249.134C60.1211 249.455 59.9012 249.834 59.7666 250.246C59.1405 251.98 59.9386 254.099 60.8811 255.564C61.9888 257.312 65.8622 259.713 65.8622 259.72Z" fill="#6D51FF"/>
<path d="M315.792 318.544H325.424" stroke="#263238" stroke-linecap="round" stroke-linejoin="round"/>
<path d="M136.912 318.544H306.16" stroke="#263238" stroke-linecap="round" stroke-linejoin="round"/>
<path d="M26.144 318.544H130.032" stroke="#263238" stroke-linecap="round" stroke-linejoin="round"/>
<path opacity="0.1" d="M87.4586 58.0878C87.4586 63.5024 77.6408 74.8269 77.6408 74.8269C77.6408 74.8269 67.8299 63.5024 67.8299 58.0878C67.8977 55.5299 68.9614 53.0995 70.7945 51.3142C72.6277 49.529 75.0854 48.5299 77.6442 48.5299C80.2031 48.5299 82.6608 49.529 84.494 51.3142C86.3271 53.0995 87.3908 55.5299 87.4586 58.0878ZM181.529 245.079C180.24 245.078 178.964 245.332 177.773 245.824C176.583 246.317 175.501 247.04 174.589 247.951C173.678 248.862 172.956 249.944 172.463 251.135C171.97 252.325 171.717 253.602 171.718 254.89C171.718 260.305 181.529 271.629 181.529 271.629C181.529 271.629 191.34 260.305 191.34 254.89C191.34 252.288 190.306 249.793 188.466 247.953C186.626 246.113 184.131 245.079 181.529 245.079ZM263.504 20.5712C260.902 20.5712 258.407 21.6048 256.567 23.4447C254.727 25.2846 253.693 27.7801 253.693 30.3821C253.672 35.776 263.504 47.1211 263.504 47.1211C263.504 47.1211 273.294 35.776 273.294 30.3821C273.292 27.7842 272.261 25.2929 270.426 23.454C268.591 21.6151 266.102 20.5785 263.504 20.5712ZM45.3254 149.853C44.0368 149.852 42.7606 150.106 41.5699 150.598C40.3792 151.091 39.2973 151.814 38.3861 152.725C37.4749 153.636 36.7522 154.718 36.2595 155.909C35.7668 157.099 35.5137 158.376 35.5146 159.664C35.5146 165.079 45.3254 176.396 45.3254 176.396C45.3254 176.396 55.1363 165.079 55.1363 159.664C55.1363 157.062 54.1027 154.567 52.2628 152.727C50.4229 150.887 47.9274 149.853 45.3254 149.853ZM306.188 146.413C303.594 146.415 301.107 147.443 299.269 149.272C297.431 151.101 296.391 153.583 296.377 156.176C296.377 161.597 306.188 172.915 306.188 172.915C306.188 172.915 315.998 161.618 315.998 156.176C315.996 154.887 315.739 153.611 315.243 152.422C314.747 151.232 314.022 150.151 313.108 149.242C312.194 148.333 311.11 147.613 309.918 147.123C308.726 146.633 307.449 146.382 306.16 146.386L306.188 146.413ZM263.504 34.5376H259.376C259.194 34.5376 259.019 34.4651 258.89 34.3361C258.76 34.2071 258.688 34.0321 258.688 33.8496C258.688 33.6671 258.76 33.4921 258.89 33.3631C259.019 33.2341 259.194 33.1616 259.376 33.1616H263.504C263.686 33.1616 263.861 33.2341 263.99 33.3631C264.12 33.4921 264.192 33.6671 264.192 33.8496C264.192 34.0321 264.12 34.2071 263.99 34.3361C263.861 34.4651 263.686 34.5376 263.504 34.5376ZM221.35 258.351C221.35 258.168 221.278 257.993 221.149 257.864C221.02 257.735 220.845 257.663 220.662 257.663H212.406C212.224 257.663 212.049 257.735 211.92 257.864C211.791 257.993 211.718 258.168 211.718 258.351C211.718 258.533 211.791 258.708 211.92 258.837C212.049 258.966 212.224 259.039 212.406 259.039H220.662C220.845 259.039 221.02 258.966 221.149 258.837C221.278 258.708 221.35 258.533 221.35 258.351ZM204.907 258.351C204.907 258.168 204.835 257.993 204.706 257.864C204.577 257.735 204.402 257.663 204.219 257.663H196.004C195.822 257.663 195.647 257.735 195.518 257.864C195.389 257.993 195.316 258.168 195.316 258.351C195.316 258.533 195.389 258.708 195.518 258.837C195.647 258.966 195.822 259.039 196.004 259.039H204.219C204.402 259.039 204.577 258.966 204.706 258.837C204.835 258.708 204.907 258.533 204.907 258.351ZM228.946 258.977C231.879 258.666 234.584 257.252 236.514 255.021C236.633 254.883 236.693 254.704 236.68 254.522C236.667 254.34 236.583 254.17 236.445 254.051C236.307 253.931 236.128 253.872 235.946 253.885C235.764 253.897 235.594 253.982 235.475 254.12C233.774 256.084 231.392 257.331 228.808 257.608C228.718 257.613 228.629 257.636 228.548 257.675C228.466 257.714 228.393 257.769 228.333 257.836C228.272 257.903 228.226 257.982 228.196 258.068C228.166 258.153 228.153 258.243 228.158 258.334C228.163 258.424 228.186 258.512 228.225 258.594C228.264 258.676 228.319 258.749 228.386 258.809C228.454 258.869 228.532 258.916 228.618 258.946C228.703 258.976 228.793 258.989 228.884 258.984L228.946 258.977ZM188.512 257.862C188.548 257.779 188.568 257.69 188.57 257.599C188.572 257.508 188.555 257.418 188.522 257.334C188.489 257.249 188.439 257.172 188.376 257.107C188.313 257.042 188.238 256.99 188.154 256.954C186.978 256.452 185.925 255.699 185.068 254.748C184.211 253.798 183.572 252.673 183.194 251.45C183.166 251.364 183.122 251.284 183.064 251.214C183.005 251.145 182.934 251.088 182.853 251.046C182.773 251.005 182.685 250.98 182.594 250.972C182.504 250.965 182.413 250.975 182.327 251.003C182.154 251.058 182.01 251.18 181.926 251.341C181.842 251.502 181.826 251.69 181.88 251.863C182.321 253.27 183.061 254.564 184.051 255.657C185.04 256.749 186.255 257.615 187.611 258.193C187.695 258.231 187.787 258.249 187.879 258.248C188.01 258.251 188.14 258.216 188.252 258.148C188.364 258.079 188.454 257.98 188.512 257.862ZM239.355 246.992V238.784C239.355 238.602 239.283 238.427 239.154 238.298C239.025 238.169 238.85 238.096 238.667 238.096C238.485 238.096 238.31 238.169 238.181 238.298C238.052 238.427 237.979 238.602 237.979 238.784V246.992C237.979 247.174 238.052 247.349 238.181 247.478C238.31 247.607 238.485 247.68 238.667 247.68C238.85 247.68 239.025 247.607 239.154 247.478C239.283 247.349 239.355 247.174 239.355 246.992ZM182.795 243.504V237.855C182.794 236.964 182.727 236.074 182.595 235.193C182.582 235.103 182.551 235.017 182.504 234.94C182.457 234.862 182.396 234.795 182.323 234.741C182.25 234.687 182.167 234.649 182.079 234.627C181.992 234.605 181.9 234.601 181.811 234.615C181.721 234.628 181.635 234.659 181.558 234.706C181.48 234.753 181.413 234.814 181.359 234.887C181.305 234.96 181.267 235.043 181.245 235.131C181.223 235.218 181.219 235.31 181.233 235.399C181.357 236.212 181.419 237.033 181.419 237.855V243.504C181.419 243.686 181.491 243.861 181.62 243.99C181.749 244.119 181.924 244.192 182.107 244.192C182.289 244.192 182.464 244.119 182.593 243.99C182.722 243.861 182.795 243.686 182.795 243.504ZM239.355 230.556V222.341C239.355 222.158 239.283 221.983 239.154 221.854C239.025 221.725 238.85 221.653 238.667 221.653C238.485 221.653 238.31 221.725 238.181 221.854C238.052 221.983 237.979 222.158 237.979 222.341V230.563C237.979 230.745 238.052 230.92 238.181 231.049C238.31 231.178 238.485 231.251 238.667 231.251C238.85 231.251 239.025 231.178 239.154 231.049C239.283 230.92 239.355 230.745 239.355 230.563V230.556ZM179.21 228.333C179.283 228.28 179.345 228.212 179.391 228.135C179.438 228.057 179.469 227.971 179.482 227.882C179.496 227.792 179.491 227.701 179.469 227.613C179.448 227.526 179.409 227.443 179.355 227.37C177.657 225.066 175.429 223.204 172.86 221.942C172.778 221.894 172.688 221.864 172.594 221.852C172.5 221.841 172.405 221.849 172.314 221.877C172.224 221.904 172.139 221.949 172.067 222.01C171.995 222.072 171.936 222.147 171.895 222.232C171.853 222.317 171.829 222.409 171.825 222.504C171.82 222.598 171.836 222.693 171.869 222.781C171.903 222.869 171.955 222.95 172.021 223.017C172.087 223.085 172.167 223.138 172.255 223.173C174.626 224.339 176.682 226.06 178.247 228.189C178.301 228.262 178.368 228.323 178.446 228.37C178.523 228.417 178.609 228.448 178.699 228.461C178.788 228.474 178.879 228.47 178.967 228.448C179.055 228.426 179.138 228.387 179.21 228.333ZM165.292 220.848C165.292 220.666 165.22 220.491 165.09 220.362C164.961 220.232 164.786 220.16 164.604 220.16H156.389C156.207 220.16 156.032 220.232 155.903 220.362C155.774 220.491 155.701 220.666 155.701 220.848C155.701 221.03 155.774 221.205 155.903 221.334C156.032 221.464 156.207 221.536 156.389 221.536H164.604C164.786 221.536 164.961 221.464 165.09 221.334C165.22 221.205 165.292 221.03 165.292 220.848ZM148.856 220.848C148.856 220.666 148.783 220.491 148.654 220.362C148.525 220.232 148.35 220.16 148.168 220.16H139.912C139.729 220.16 139.554 220.232 139.425 220.362C139.296 220.491 139.224 220.666 139.224 220.848C139.224 221.03 139.296 221.205 139.425 221.334C139.554 221.464 139.729 221.536 139.912 221.536H148.168C148.35 221.536 148.525 221.464 148.654 221.334C148.783 221.205 148.856 221.03 148.856 220.848ZM132.419 220.848C132.419 220.666 132.347 220.491 132.218 220.362C132.089 220.232 131.914 220.16 131.731 220.16H123.51C123.327 220.16 123.152 220.232 123.023 220.362C122.894 220.491 122.822 220.666 122.822 220.848C122.822 221.03 122.894 221.205 123.023 221.334C123.152 221.464 123.327 221.536 123.51 221.536H131.731C131.914 221.536 132.089 221.464 132.218 221.334C132.347 221.205 132.419 221.03 132.419 220.848ZM115.983 220.848C115.983 220.666 115.911 220.491 115.782 220.362C115.653 220.232 115.478 220.16 115.295 220.16H107.039C106.857 220.16 106.682 220.232 106.553 220.362C106.424 220.491 106.351 220.666 106.351 220.848C106.351 221.03 106.424 221.205 106.553 221.334C106.682 221.464 106.857 221.536 107.039 221.536H115.295C115.478 221.536 115.653 221.464 115.782 221.334C115.911 221.205 115.983 221.03 115.983 220.848ZM99.5398 220.848C99.5398 220.666 99.4674 220.491 99.3383 220.362C99.2093 220.232 99.0343 220.16 98.8518 220.16H90.6371C90.4547 220.16 90.2797 220.232 90.1506 220.362C90.0216 220.491 89.9491 220.666 89.9491 220.848C89.9491 221.03 90.0216 221.205 90.1506 221.334C90.2797 221.464 90.4547 221.536 90.6371 221.536H98.8518C99.0343 221.536 99.2093 221.464 99.3383 221.334C99.4674 221.205 99.5398 221.03 99.5398 220.848ZM83.1035 220.848C83.1035 220.666 83.031 220.491 82.902 220.362C82.773 220.232 82.598 220.16 82.4155 220.16H74.2008C74.0183 220.16 73.8433 220.232 73.7143 220.362C73.5853 220.491 73.5128 220.666 73.5128 220.848C73.5128 221.03 73.5853 221.205 73.7143 221.334C73.8433 221.464 74.0183 221.536 74.2008 221.536H82.4155C82.598 221.536 82.773 221.464 82.902 221.334C83.031 221.205 83.1035 221.03 83.1035 220.848ZM66.6672 220.848C66.6672 220.666 66.5947 220.491 66.4657 220.362C66.3367 220.232 66.1617 220.16 65.9792 220.16H57.792C57.6095 220.16 57.4345 220.232 57.3055 220.362C57.1765 220.491 57.104 220.666 57.104 220.848C57.104 221.03 57.1765 221.205 57.3055 221.334C57.4345 221.464 57.6095 221.536 57.792 221.536H66.048C66.2183 221.519 66.3761 221.439 66.4906 221.312C66.6051 221.184 66.6681 221.019 66.6672 220.848ZM50.3754 219.747C50.457 219.585 50.4709 219.397 50.4142 219.224C50.3575 219.051 50.2347 218.908 50.0726 218.825C47.7297 217.648 45.8075 215.777 44.5686 213.466C44.4814 213.309 44.3361 213.192 44.1639 213.141C43.9918 213.089 43.8063 213.107 43.6473 213.191C43.4882 213.274 43.3681 213.417 43.3128 213.588C43.2574 213.759 43.2711 213.945 43.3509 214.106C44.7175 216.668 46.8414 218.746 49.4328 220.057C49.5292 220.104 49.6353 220.127 49.7424 220.126C49.8737 220.128 50.003 220.094 50.1152 220.025C50.2273 219.957 50.3176 219.858 50.3754 219.74V219.747ZM43.1238 205.815V197.594C43.1238 197.411 43.0514 197.236 42.9223 197.107C42.7933 196.978 42.6183 196.906 42.4358 196.906C42.2534 196.906 42.0784 196.978 41.9494 197.107C41.8203 197.236 41.7478 197.411 41.7478 197.594V205.815C41.7478 205.998 41.8203 206.173 41.9494 206.302C42.0784 206.431 42.2534 206.503 42.4358 206.503C42.6183 206.503 42.7933 206.431 42.9223 206.302C43.0514 206.173 43.1238 205.998 43.1238 205.815ZM43.1238 189.379V181.157C43.1238 180.975 43.0514 180.8 42.9223 180.671C42.7933 180.542 42.6183 180.469 42.4358 180.469C42.2534 180.469 42.0784 180.542 41.9494 180.671C41.8203 180.8 41.7478 180.975 41.7478 181.157V189.379C41.7478 189.561 41.8203 189.736 41.9494 189.865C42.0784 189.994 42.2534 190.067 42.4358 190.067C42.6183 190.067 42.7933 189.994 42.9223 189.865C43.0514 189.736 43.1238 189.561 43.1238 189.379ZM43.1238 172.936V169.496C43.1164 168.026 43.5502 166.588 44.3691 165.368C44.4704 165.215 44.507 165.029 44.4709 164.85C44.4347 164.67 44.3288 164.513 44.1765 164.411C44.0241 164.31 43.8378 164.273 43.6584 164.31C43.4791 164.346 43.3214 164.452 43.2202 164.604C42.2571 166.043 41.7446 167.737 41.7478 169.468V172.908C41.7478 173.091 41.8203 173.266 41.9494 173.395C42.0784 173.524 42.2534 173.596 42.4358 173.596C42.6183 173.596 42.7933 173.524 42.9223 173.395C43.0514 173.266 43.1238 173.091 43.1238 172.908V172.936ZM322.177 161.508C322.263 161.479 322.342 161.434 322.41 161.374C322.479 161.315 322.535 161.242 322.575 161.161C322.615 161.08 322.639 160.992 322.645 160.901C322.651 160.811 322.639 160.72 322.61 160.634C322.552 160.462 322.428 160.32 322.266 160.239C322.104 160.158 321.916 160.144 321.743 160.201C320.729 160.536 319.667 160.706 318.599 160.703H313.783C313.601 160.703 313.426 160.776 313.297 160.905C313.168 161.034 313.095 161.209 313.095 161.391C313.095 161.574 313.168 161.749 313.297 161.878C313.426 162.007 313.601 162.079 313.783 162.079H318.599C319.814 162.079 321.022 161.886 322.177 161.508ZM306.263 161.391C306.263 161.209 306.191 161.034 306.062 160.905C305.933 160.776 305.758 160.703 305.575 160.703H297.36C297.178 160.703 297.003 160.776 296.874 160.905C296.745 161.034 296.672 161.209 296.672 161.391C296.672 161.574 296.745 161.749 296.874 161.878C297.003 162.007 297.178 162.079 297.36 162.079H305.575C305.758 162.079 305.933 162.007 306.062 161.878C306.191 161.749 306.263 161.574 306.263 161.391ZM289.827 161.391C289.827 161.209 289.754 161.034 289.625 160.905C289.496 160.776 289.321 160.703 289.139 160.703H280.924C280.742 160.703 280.567 160.776 280.438 160.905C280.309 161.034 280.236 161.209 280.236 161.391C280.236 161.574 280.309 161.749 280.438 161.878C280.567 162.007 280.742 162.079 280.924 162.079H289.139C289.321 162.079 289.496 162.007 289.625 161.878C289.754 161.749 289.827 161.574 289.827 161.391ZM273.391 161.391C273.391 161.209 273.318 161.034 273.189 160.905C273.06 160.776 272.885 160.703 272.703 160.703H264.481C264.299 160.703 264.124 160.776 263.994 160.905C263.865 161.034 263.793 161.209 263.793 161.391C263.793 161.574 263.865 161.749 263.994 161.878C264.124 162.007 264.299 162.079 264.481 162.079H272.703C272.885 162.079 273.06 162.007 273.189 161.878C273.318 161.749 273.391 161.574 273.391 161.391ZM256.954 161.391C256.954 161.209 256.882 161.034 256.753 160.905C256.624 160.776 256.449 160.703 256.266 160.703H248.01C247.828 160.703 247.653 160.776 247.524 160.905C247.395 161.034 247.322 161.209 247.322 161.391C247.322 161.574 247.395 161.749 247.524 161.878C247.653 162.007 247.828 162.079 248.01 162.079H256.266C256.449 162.079 256.624 162.007 256.753 161.878C256.882 161.749 256.954 161.574 256.954 161.391ZM240.518 161.391C240.518 161.209 240.445 161.034 240.316 160.905C240.187 160.776 240.012 160.703 239.83 160.703H231.608C231.426 160.703 231.251 160.776 231.122 160.905C230.993 161.034 230.92 161.209 230.92 161.391C230.92 161.574 230.993 161.749 231.122 161.878C231.251 162.007 231.426 162.079 231.608 162.079H239.83C240.012 162.079 240.187 162.007 240.316 161.878C240.445 161.749 240.518 161.574 240.518 161.391ZM224.075 161.391C224.075 161.209 224.002 161.034 223.873 160.905C223.744 160.776 223.569 160.703 223.387 160.703H215.172C214.99 160.703 214.815 160.776 214.686 160.905C214.557 161.034 214.484 161.209 214.484 161.391C214.484 161.574 214.557 161.749 214.686 161.878C214.815 162.007 214.99 162.079 215.172 162.079H223.387C223.569 162.079 223.744 162.007 223.873 161.878C224.002 161.749 224.075 161.574 224.075 161.391ZM207.638 161.391C207.638 161.209 207.566 161.034 207.437 160.905C207.308 160.776 207.133 160.703 206.95 160.703H198.736C198.553 160.703 198.378 160.776 198.249 160.905C198.12 161.034 198.048 161.209 198.048 161.391C198.048 161.574 198.12 161.749 198.249 161.878C198.378 162.007 198.553 162.079 198.736 162.079H206.95C207.133 162.079 207.308 162.007 207.437 161.878C207.566 161.749 207.638 161.574 207.638 161.391ZM191.202 161.391C191.202 161.209 191.13 161.034 191.001 160.905C190.872 160.776 190.697 160.703 190.514 160.703H182.32C182.138 160.703 181.963 160.776 181.834 160.905C181.704 161.034 181.632 161.209 181.632 161.391C181.632 161.574 181.704 161.749 181.834 161.878C181.963 162.007 182.138 162.079 182.32 162.079H190.576C190.748 162.064 190.907 161.984 191.023 161.857C191.139 161.729 191.203 161.563 191.202 161.391ZM174.766 161.391C174.766 161.209 174.693 161.034 174.564 160.905C174.435 160.776 174.26 160.703 174.078 160.703H165.822C165.639 160.703 165.464 160.776 165.335 160.905C165.206 161.034 165.134 161.209 165.134 161.391C165.134 161.574 165.206 161.749 165.335 161.878C165.464 162.007 165.639 162.079 165.822 162.079H174.078C174.258 162.075 174.429 162.001 174.555 161.873C174.681 161.744 174.752 161.571 174.752 161.391H174.766ZM158.329 161.391C158.329 161.209 158.257 161.034 158.128 160.905C157.999 160.776 157.824 160.703 157.641 160.703H149.42C149.237 160.703 149.062 160.776 148.933 160.905C148.804 161.034 148.732 161.209 148.732 161.391C148.732 161.574 148.804 161.749 148.933 161.878C149.062 162.007 149.237 162.079 149.42 162.079H157.641C157.824 162.079 157.999 162.007 158.128 161.878C158.257 161.749 158.329 161.574 158.329 161.391ZM141.886 161.391C141.886 161.209 141.814 161.034 141.685 160.905C141.556 160.776 141.381 160.703 141.198 160.703H132.984C132.801 160.703 132.626 160.776 132.497 160.905C132.368 161.034 132.296 161.209 132.296 161.391C132.296 161.574 132.368 161.749 132.497 161.878C132.626 162.007 132.801 162.079 132.984 162.079H141.198C141.381 162.079 141.556 162.007 141.685 161.878C141.814 161.749 141.886 161.574 141.886 161.391ZM125.45 161.391C125.45 161.209 125.377 161.034 125.248 160.905C125.119 160.776 124.944 160.703 124.762 160.703H116.547C116.365 160.703 116.19 160.776 116.061 160.905C115.932 161.034 115.859 161.209 115.859 161.391C115.859 161.574 115.932 161.749 116.061 161.878C116.19 162.007 116.365 162.079 116.547 162.079H124.762C124.944 162.079 125.119 162.007 125.248 161.878C125.377 161.749 125.45 161.574 125.45 161.391ZM109.014 161.391C109.014 161.209 108.941 161.034 108.812 160.905C108.683 160.776 108.508 160.703 108.326 160.703H100.104C99.9215 160.703 99.7465 160.776 99.6175 160.905C99.4885 161.034 99.416 161.209 99.416 161.391C99.416 161.574 99.4885 161.749 99.6175 161.878C99.7465 162.007 99.9215 162.079 100.104 162.079H108.326C108.508 162.079 108.683 162.007 108.812 161.878C108.941 161.749 109.014 161.574 109.014 161.391ZM92.5773 161.391C92.5773 161.209 92.5048 161.034 92.3758 160.905C92.2467 160.776 92.0718 160.703 91.8893 160.703H83.6333C83.4508 160.703 83.2758 160.776 83.1468 160.905C83.0178 161.034 82.9453 161.209 82.9453 161.391C82.9453 161.574 83.0178 161.749 83.1468 161.878C83.2758 162.007 83.4508 162.079 83.6333 162.079H91.8893C92.0718 162.079 92.2467 162.007 92.3758 161.878C92.5048 161.749 92.5773 161.574 92.5773 161.391ZM76.141 161.391C76.141 161.209 76.0685 161.034 75.9394 160.905C75.8104 160.776 75.6354 160.703 75.453 160.703H67.197C67.0145 160.703 66.8395 160.776 66.7105 160.905C66.5814 161.034 66.509 161.209 66.509 161.391C66.509 161.574 66.5814 161.749 66.7105 161.878C66.8395 162.007 67.0145 162.079 67.197 162.079H75.453C75.6354 162.079 75.8104 162.007 75.9394 161.878C76.0685 161.749 76.141 161.574 76.141 161.391ZM59.6978 161.391C59.6978 161.209 59.6253 161.034 59.4962 160.905C59.3672 160.776 59.1922 160.703 59.0098 160.703H50.795C50.6126 160.703 50.4376 160.776 50.3086 160.905C50.1795 161.034 50.107 161.209 50.107 161.391C50.107 161.574 50.1795 161.749 50.3086 161.878C50.4376 162.007 50.6126 162.079 50.795 162.079H59.0098C59.1922 162.079 59.3672 162.007 59.4962 161.878C59.6253 161.749 59.6978 161.574 59.6978 161.391ZM328.706 155.976C329.556 154.352 330 152.546 329.999 150.713V147.638C329.999 147.455 329.927 147.28 329.798 147.151C329.669 147.022 329.494 146.95 329.311 146.95C329.129 146.95 328.954 147.022 328.825 147.151C328.696 147.28 328.623 147.455 328.623 147.638V150.713C328.624 152.323 328.234 153.91 327.488 155.337C327.443 155.417 327.415 155.505 327.405 155.596C327.396 155.687 327.404 155.78 327.43 155.867C327.456 155.955 327.5 156.037 327.558 156.108C327.616 156.179 327.688 156.237 327.769 156.28C327.851 156.323 327.939 156.349 328.031 156.356C328.122 156.364 328.214 156.354 328.301 156.325C328.389 156.297 328.469 156.252 328.539 156.192C328.608 156.132 328.665 156.059 328.706 155.976ZM329.999 139.416V131.202C329.999 131.019 329.927 130.844 329.798 130.715C329.669 130.586 329.494 130.514 329.311 130.514C329.129 130.514 328.954 130.586 328.825 130.715C328.696 130.844 328.623 131.019 328.623 131.202V139.416C328.623 139.599 328.696 139.774 328.825 139.903C328.954 140.032 329.129 140.104 329.311 140.104C329.494 140.104 329.669 140.032 329.798 139.903C329.927 139.774 329.999 139.599 329.999 139.416ZM329.999 122.98V120.132C330.012 118.21 329.538 116.317 328.623 114.628C328.579 114.549 328.52 114.479 328.45 114.423C328.379 114.366 328.298 114.325 328.211 114.3C328.124 114.275 328.033 114.267 327.943 114.277C327.853 114.288 327.767 114.315 327.688 114.359C327.53 114.448 327.413 114.595 327.363 114.769C327.312 114.943 327.333 115.129 327.419 115.288C328.227 116.765 328.651 118.421 328.651 120.104V122.952C328.651 123.135 328.723 123.31 328.852 123.439C328.981 123.568 329.156 123.64 329.339 123.64C329.521 123.64 329.696 123.568 329.825 123.439C329.954 123.31 330.027 123.135 330.027 122.952L329.999 122.98ZM322.431 110.121C322.485 109.947 322.467 109.759 322.382 109.597C322.297 109.436 322.151 109.315 321.977 109.261C320.893 108.931 319.766 108.764 318.633 108.766H313.604C313.422 108.766 313.247 108.838 313.118 108.967C312.989 109.096 312.916 109.271 312.916 109.454C312.916 109.636 312.989 109.811 313.118 109.94C313.247 110.069 313.422 110.142 313.604 110.142H318.633C319.629 110.139 320.62 110.288 321.571 110.582C321.64 110.593 321.709 110.593 321.778 110.582C321.915 110.576 322.048 110.529 322.158 110.447C322.268 110.365 322.352 110.251 322.397 110.121H322.431ZM306.077 109.433C306.077 109.251 306.005 109.076 305.876 108.947C305.747 108.818 305.572 108.745 305.389 108.745H297.133C296.951 108.745 296.776 108.818 296.647 108.947C296.518 109.076 296.445 109.251 296.445 109.433C296.445 109.616 296.518 109.791 296.647 109.92C296.776 110.049 296.951 110.121 297.133 110.121H305.355C305.534 110.121 305.706 110.052 305.834 109.927C305.963 109.803 306.038 109.633 306.043 109.454L306.077 109.433ZM289.634 109.433C289.634 109.251 289.562 109.076 289.433 108.947C289.304 108.818 289.129 108.745 288.946 108.745H280.704C280.522 108.745 280.347 108.818 280.218 108.947C280.089 109.076 280.016 109.251 280.016 109.433C280.016 109.616 280.089 109.791 280.218 109.92C280.347 110.049 280.522 110.121 280.704 110.121H288.919C289.096 110.12 289.267 110.049 289.394 109.925C289.521 109.8 289.595 109.632 289.6 109.454L289.634 109.433ZM273.198 109.433C273.198 109.251 273.125 109.076 272.996 108.947C272.867 108.818 272.692 108.745 272.51 108.745H264.261C264.078 108.745 263.903 108.818 263.774 108.947C263.645 109.076 263.573 109.251 263.573 109.433C263.573 109.616 263.645 109.791 263.774 109.92C263.903 110.049 264.078 110.121 264.261 110.121H272.448C272.627 110.121 272.799 110.052 272.927 109.927C273.056 109.803 273.131 109.633 273.136 109.454L273.198 109.433ZM256.762 109.433C256.762 109.251 256.689 109.076 256.56 108.947C256.431 108.818 256.256 108.745 256.074 108.745H247.818C247.635 108.745 247.46 108.818 247.331 108.947C247.202 109.076 247.13 109.251 247.13 109.433C247.13 109.616 247.202 109.791 247.331 109.92C247.46 110.049 247.635 110.121 247.818 110.121H256.039C256.218 110.121 256.39 110.052 256.519 109.927C256.647 109.803 256.722 109.633 256.727 109.454L256.762 109.433ZM240.325 109.433C240.325 109.251 240.253 109.076 240.124 108.947C239.995 108.818 239.82 108.745 239.637 108.745H231.381C231.199 108.745 231.024 108.818 230.895 108.947C230.766 109.076 230.693 109.251 230.693 109.433C230.693 109.616 230.766 109.791 230.895 109.92C231.024 110.049 231.199 110.121 231.381 110.121H239.603C239.782 110.121 239.954 110.052 240.082 109.927C240.211 109.803 240.286 109.633 240.291 109.454L240.325 109.433ZM223.889 109.433C223.889 109.251 223.816 109.076 223.687 108.947C223.558 108.818 223.383 108.745 223.201 108.745H214.945C214.763 108.745 214.587 108.818 214.458 108.947C214.329 109.076 214.257 109.251 214.257 109.433C214.257 109.616 214.329 109.791 214.458 109.92C214.587 110.049 214.763 110.121 214.945 110.121H223.167C223.346 110.121 223.517 110.052 223.646 109.927C223.774 109.803 223.849 109.633 223.855 109.454L223.889 109.433ZM207.446 109.433C207.446 109.251 207.373 109.076 207.244 108.947C207.115 108.818 206.94 108.745 206.758 108.745H198.509C198.326 108.745 198.151 108.818 198.022 108.947C197.893 109.076 197.821 109.251 197.821 109.433C197.821 109.616 197.893 109.791 198.022 109.92C198.151 110.049 198.326 110.121 198.509 110.121H206.723C206.902 110.121 207.074 110.052 207.203 109.927C207.331 109.803 207.406 109.633 207.411 109.454L207.446 109.433ZM191.009 109.433C191.009 109.251 190.937 109.076 190.808 108.947C190.679 108.818 190.504 108.745 190.321 108.745H182.072C181.89 108.745 181.715 108.818 181.586 108.947C181.457 109.076 181.384 109.251 181.384 109.433C181.384 109.616 181.457 109.791 181.586 109.92C181.715 110.049 181.89 110.121 182.072 110.121H190.287C190.466 110.121 190.638 110.052 190.766 109.927C190.895 109.803 190.97 109.633 190.975 109.454L191.009 109.433ZM174.573 109.433C174.573 109.251 174.501 109.076 174.372 108.947C174.243 108.818 174.068 108.745 173.885 108.745H165.629C165.447 108.745 165.272 108.818 165.143 108.947C165.014 109.076 164.941 109.251 164.941 109.433C164.941 109.616 165.014 109.791 165.143 109.92C165.272 110.049 165.447 110.121 165.629 110.121H173.851C174.03 110.121 174.202 110.052 174.33 109.927C174.459 109.803 174.533 109.633 174.539 109.454L174.573 109.433ZM158.137 109.433C158.137 109.251 158.064 109.076 157.935 108.947C157.806 108.818 157.631 108.745 157.449 108.745H149.193C149.01 108.745 148.835 108.818 148.706 108.947C148.577 109.076 148.505 109.251 148.505 109.433C148.505 109.616 148.577 109.791 148.706 109.92C148.835 110.049 149.01 110.121 149.193 110.121H157.449C157.622 110.113 157.785 110.039 157.906 109.916C158.027 109.792 158.097 109.627 158.102 109.454L158.137 109.433ZM141.7 109.433C141.7 109.251 141.628 109.076 141.499 108.947C141.37 108.818 141.195 108.745 141.012 108.745H132.784C132.602 108.745 132.427 108.818 132.298 108.947C132.168 109.076 132.096 109.251 132.096 109.433C132.096 109.616 132.168 109.791 132.298 109.92C132.427 110.049 132.602 110.121 132.784 110.121H141.006C141.18 110.114 141.345 110.042 141.467 109.918C141.59 109.794 141.661 109.628 141.666 109.454L141.7 109.433ZM125.257 109.433C125.257 109.251 125.185 109.076 125.056 108.947C124.927 108.818 124.752 108.745 124.569 108.745H116.32C116.138 108.745 115.963 108.818 115.834 108.947C115.705 109.076 115.632 109.251 115.632 109.433C115.632 109.616 115.705 109.791 115.834 109.92C115.963 110.049 116.138 110.121 116.32 110.121H124.528C124.707 110.121 124.879 110.052 125.007 109.927C125.136 109.803 125.211 109.633 125.216 109.454L125.257 109.433ZM108.821 109.433C108.821 109.251 108.748 109.076 108.619 108.947C108.49 108.818 108.315 108.745 108.133 108.745H99.8838C99.7014 108.745 99.5264 108.818 99.3974 108.947C99.2683 109.076 99.1958 109.251 99.1958 109.433C99.1958 109.616 99.2683 109.791 99.3974 109.92C99.5264 110.049 99.7014 110.121 99.8838 110.121H108.099C108.278 110.121 108.449 110.052 108.578 109.927C108.706 109.803 108.781 109.633 108.787 109.454L108.821 109.433ZM92.3846 109.433C92.3846 109.251 92.3122 109.076 92.1831 108.947C92.0541 108.818 91.8791 108.745 91.6966 108.745H83.4406C83.2582 108.745 83.0832 108.818 82.9542 108.947C82.8251 109.076 82.7526 109.251 82.7526 109.433C82.7526 109.616 82.8251 109.791 82.9542 109.92C83.0832 110.049 83.2582 110.121 83.4406 110.121H91.6622C91.8412 110.121 92.0131 110.052 92.1416 109.927C92.27 109.803 92.3449 109.633 92.3502 109.454L92.3846 109.433ZM76.423 107.369C76.4875 107.305 76.5387 107.229 76.5736 107.145C76.6086 107.062 76.6266 106.972 76.6266 106.881C76.6266 106.79 76.6086 106.7 76.5736 106.616C76.5387 106.532 76.4875 106.456 76.423 106.392C75.5815 105.596 74.9123 104.636 74.4567 103.571C74.0011 102.506 73.7688 101.359 73.7742 100.2V99.4573C73.7742 99.2748 73.7018 99.0998 73.5727 98.9708C73.4437 98.8418 73.2687 98.7693 73.0862 98.7693C72.9038 98.7693 72.7288 98.8418 72.5998 98.9708C72.4707 99.0998 72.3982 99.2748 72.3982 99.4573V100.2C72.3931 101.544 72.6634 102.875 73.1923 104.11C73.7212 105.345 74.4976 106.459 75.4736 107.383C75.6011 107.506 75.7712 107.575 75.9483 107.576C76.1071 107.56 76.2555 107.489 76.368 107.376L76.423 107.369ZM73.7467 91.2494V83.0347C73.7467 82.8522 73.6742 82.6772 73.5452 82.5482C73.4162 82.4192 73.2412 82.3467 73.0587 82.3467C72.8763 82.3467 72.7013 82.4192 72.5722 82.5482C72.4432 82.6772 72.3707 82.8522 72.3707 83.0347V91.2563C72.3707 91.4388 72.4432 91.6138 72.5722 91.7428C72.7013 91.8718 72.8763 91.9443 73.0587 91.9443C73.2412 91.9443 73.4162 91.8718 73.5452 91.7428C73.6742 91.6138 73.7467 91.4388 73.7467 91.2563V91.2494ZM73.7467 74.8062V73.0862C73.7437 71.0421 74.3523 69.0438 75.4942 67.3483C75.5444 67.2702 75.5786 67.1829 75.5951 67.0915C75.6115 67.0001 75.6097 66.9064 75.5899 66.8157C75.5701 66.7249 75.5326 66.639 75.4796 66.5628C75.4266 66.4865 75.3591 66.4215 75.281 66.3714C75.2028 66.3212 75.1155 66.2869 75.0242 66.2705C74.9328 66.2541 74.839 66.2559 74.7483 66.2757C74.6576 66.2955 74.5717 66.3329 74.4954 66.386C74.4192 66.439 74.3541 66.5065 74.304 66.5846C73.0046 68.5062 72.312 70.7735 72.3157 73.0931V74.8131C72.3157 74.9956 72.3882 75.1706 72.5172 75.2996C72.6462 75.4286 72.8212 75.5011 73.0037 75.5011C73.1861 75.5011 73.3611 75.4286 73.4902 75.2996C73.6192 75.1706 73.6917 74.9956 73.6917 74.8131L73.7467 74.8062ZM81.6862 63.1102C82.4531 62.9313 83.238 62.8412 84.0254 62.8419H89.729C89.9114 62.8419 90.0864 62.7694 90.2155 62.6404C90.3445 62.5114 90.417 62.3364 90.417 62.1539C90.417 61.9714 90.3445 61.7965 90.2155 61.6674C90.0864 61.5384 89.9114 61.4659 89.729 61.4659H84.0254C83.1339 61.4665 82.2453 61.568 81.3766 61.7686C81.2885 61.7889 81.2053 61.8264 81.1316 61.8788C81.058 61.9313 80.9954 61.9978 80.9475 62.0745C80.8996 62.1511 80.8672 62.2365 80.8523 62.3257C80.8374 62.4149 80.8403 62.5061 80.8606 62.5942C80.897 62.7482 80.9852 62.8849 81.1105 62.9814C81.2358 63.0779 81.3905 63.1282 81.5486 63.124C81.5843 63.1135 81.6188 63.0997 81.6518 63.0827L81.6862 63.1102ZM98.0538 62.6768C99.4958 62.422 100.873 61.8848 102.107 61.0961C103.341 60.3074 104.407 59.2827 105.243 58.081C105.347 57.9313 105.387 57.7465 105.355 57.5672C105.323 57.388 105.221 57.2288 105.071 57.1246C104.922 57.0209 104.737 56.9807 104.558 57.013C104.378 57.0452 104.219 57.1472 104.115 57.2966C102.633 59.4199 100.369 60.8677 97.8198 61.3214C97.6374 61.3369 97.4685 61.4243 97.3505 61.5643C97.2324 61.7043 97.1748 61.8854 97.1903 62.0679C97.2058 62.2504 97.2932 62.4192 97.4332 62.5373C97.5732 62.6553 97.7543 62.7129 97.9368 62.6974L98.0538 62.6768ZM107.19 49.825V44.2384C107.191 43.4172 107.292 42.5991 107.493 41.8029C107.525 41.7127 107.538 41.6167 107.531 41.5212C107.524 41.4257 107.497 41.3327 107.452 41.2482C107.407 41.1637 107.345 41.0895 107.269 41.0304C107.194 40.9714 107.107 40.9287 107.014 40.9051C106.922 40.8815 106.825 40.8776 106.73 40.8936C106.636 40.9095 106.546 40.945 106.466 40.9978C106.386 41.0506 106.318 41.1195 106.266 41.2001C106.214 41.2806 106.18 41.3711 106.165 41.4658C105.933 42.3646 105.815 43.2893 105.814 44.2178V49.8043C105.814 49.9868 105.887 50.1618 106.016 50.2908C106.145 50.4198 106.32 50.4923 106.502 50.4923C106.685 50.4923 106.86 50.4198 106.989 50.2908C107.118 50.1618 107.19 49.9868 107.19 49.8043V49.825ZM112.006 35.8517C113.487 34.9893 115.171 34.5358 116.884 34.5376H119.636C119.819 34.5376 119.994 34.4651 120.123 34.3361C120.252 34.2071 120.324 34.0321 120.324 33.8496C120.324 33.6671 120.252 33.4921 120.123 33.3631C119.994 33.2341 119.819 33.1616 119.636 33.1616H116.884C114.927 33.1594 113.004 33.6769 111.312 34.6614C111.233 34.707 111.165 34.7675 111.11 34.8395C111.055 34.9116 111.015 34.9937 110.992 35.0813C110.969 35.1689 110.964 35.2601 110.976 35.3498C110.988 35.4395 111.018 35.5259 111.064 35.604C111.109 35.6823 111.17 35.7508 111.242 35.8056C111.314 35.8604 111.396 35.9005 111.484 35.9235C111.571 35.9465 111.663 35.952 111.752 35.9397C111.842 35.9274 111.928 35.8975 112.006 35.8517ZM251.808 33.8496C251.808 33.6671 251.736 33.4921 251.606 33.3631C251.477 33.2341 251.302 33.1616 251.12 33.1616H242.912C242.73 33.1616 242.555 33.2341 242.426 33.3631C242.297 33.4921 242.224 33.6671 242.224 33.8496C242.224 34.0321 242.297 34.2071 242.426 34.3361C242.555 34.4651 242.73 34.5376 242.912 34.5376H251.12C251.302 34.5376 251.477 34.4651 251.606 34.3361C251.736 34.2071 251.808 34.0321 251.808 33.8496ZM235.372 33.8496C235.372 33.6671 235.299 33.4921 235.17 33.3631C235.041 33.2341 234.866 33.1616 234.684 33.1616H226.476C226.293 33.1616 226.118 33.2341 225.989 33.3631C225.86 33.4921 225.788 33.6671 225.788 33.8496C225.788 34.0321 225.86 34.2071 225.989 34.3361C226.118 34.4651 226.293 34.5376 226.476 34.5376H234.697C234.88 34.5376 235.055 34.4651 235.184 34.3361C235.313 34.2071 235.385 34.0321 235.385 33.8496H235.372ZM218.935 33.8496C218.935 33.6671 218.863 33.4921 218.734 33.3631C218.605 33.2341 218.43 33.1616 218.247 33.1616H210.04C209.857 33.1616 209.682 33.2341 209.553 33.3631C209.424 33.4921 209.352 33.6671 209.352 33.8496C209.352 34.0321 209.424 34.2071 209.553 34.3361C209.682 34.4651 209.857 34.5376 210.04 34.5376H218.261C218.444 34.5376 218.619 34.4651 218.748 34.3361C218.877 34.2071 218.949 34.0321 218.949 33.8496H218.935ZM202.492 33.8496C202.492 33.6671 202.42 33.4921 202.291 33.3631C202.162 33.2341 201.987 33.1616 201.804 33.1616H193.603C193.421 33.1616 193.246 33.2341 193.117 33.3631C192.988 33.4921 192.915 33.6671 192.915 33.8496C192.915 34.0321 192.988 34.2071 193.117 34.3361C193.246 34.4651 193.421 34.5376 193.603 34.5376H201.818C202 34.5376 202.175 34.4651 202.304 34.3361C202.433 34.2071 202.506 34.0321 202.506 33.8496H202.492ZM186.056 33.8496C186.056 33.6671 185.983 33.4921 185.854 33.3631C185.725 33.2341 185.55 33.1616 185.368 33.1616H177.167C176.984 33.1616 176.809 33.2341 176.68 33.3631C176.551 33.4921 176.479 33.6671 176.479 33.8496C176.479 34.0321 176.551 34.2071 176.68 34.3361C176.809 34.4651 176.984 34.5376 177.167 34.5376H185.382C185.564 34.5376 185.739 34.4651 185.868 34.3361C185.997 34.2071 186.07 34.0321 186.07 33.8496H186.056ZM169.62 33.8496C169.62 33.6671 169.547 33.4921 169.418 33.3631C169.289 33.2341 169.114 33.1616 168.932 33.1616H160.724C160.541 33.1616 160.366 33.2341 160.237 33.3631C160.108 33.4921 160.036 33.6671 160.036 33.8496C160.036 34.0321 160.108 34.2071 160.237 34.3361C160.366 34.4651 160.541 34.5376 160.724 34.5376H168.945C169.128 34.5376 169.303 34.4651 169.432 34.3361C169.561 34.2071 169.633 34.0321 169.633 33.8496H169.62ZM153.183 33.8496C153.183 33.6671 153.111 33.4921 152.982 33.3631C152.853 33.2341 152.678 33.1616 152.495 33.1616H144.287C144.105 33.1616 143.93 33.2341 143.801 33.3631C143.672 33.4921 143.599 33.6671 143.599 33.8496C143.599 34.0321 143.672 34.2071 143.801 34.3361C143.93 34.4651 144.105 34.5376 144.287 34.5376H152.509C152.691 34.5376 152.866 34.4651 152.995 34.3361C153.124 34.2071 153.197 34.0321 153.197 33.8496H153.183ZM136.747 33.8496C136.747 33.6671 136.674 33.4921 136.545 33.3631C136.416 33.2341 136.241 33.1616 136.059 33.1616H127.851C127.669 33.1616 127.494 33.2341 127.365 33.3631C127.236 33.4921 127.163 33.6671 127.163 33.8496C127.163 34.0321 127.236 34.2071 127.365 34.3361C127.494 34.4651 127.669 34.5376 127.851 34.5376H136.073C136.255 34.5376 136.43 34.4651 136.559 34.3361C136.688 34.2071 136.761 34.0321 136.761 33.8496H136.747ZM239.355 214.002V209.874C239.355 209.692 239.283 209.517 239.154 209.388C239.025 209.259 238.85 209.186 238.667 209.186C238.485 209.186 238.31 209.259 238.181 209.388C238.052 209.517 237.979 209.692 237.979 209.874V214.002C237.979 214.185 238.052 214.36 238.181 214.489C238.31 214.618 238.485 214.69 238.667 214.69C238.85 214.69 239.025 214.618 239.154 214.489C239.283 214.36 239.355 214.185 239.355 214.002Z" fill="black"/>
<path opacity="0.1" d="M60.1174 107.81V104.287H57.847V107.81H52.1642V104.287H49.8938V107.81H44.2109V104.287H41.968V107.81H39.4843V129.138H62.5667V107.81H60.1174ZM46.784 124.294H43.1445V120.655H46.784V124.294ZM46.784 118.536H43.1445V114.896H46.784V118.536ZM52.8453 124.294H49.2058V120.655H52.8453V124.294ZM52.8453 118.536H49.2058V114.896H52.8453V118.536ZM58.9066 124.294H55.267V120.655H58.9066V124.294ZM58.9066 118.536H55.267V114.896H58.9066V118.536Z" fill="black"/>
<path opacity="0.1" d="M193.589 281.874V278.351H191.319V281.874H185.636V278.351H183.366V281.874H177.683V278.351H175.44V281.874H172.991V303.202H196.073V281.874H193.589ZM180.256 298.386H176.616V294.746H180.256V298.386ZM180.256 292.627H176.616V288.96H180.256V292.627ZM186.317 298.386H182.678V294.746H186.317V298.386ZM186.317 292.627H182.678V288.96H186.317V292.627ZM192.379 298.386H188.739V294.746H192.379V298.386ZM192.379 292.627H188.739V288.96H192.379V292.627Z" fill="black"/>
<path opacity="0.1" d="M301.048 25.7381V22.2224H298.778V25.7381H293.088V22.2224H290.818V25.7381H285.142V22.2224H282.864V25.7381H280.415V47.0661H303.497V25.7381H301.048ZM287.715 42.2501H284.075V38.583H287.715V42.2501ZM287.715 36.4915H284.075V32.8245H287.715V36.4915ZM293.776 42.2226H290.136V38.583H293.776V42.2226ZM293.776 36.464H290.136V32.8245H293.776V36.464ZM299.837 42.2226H296.198V38.583H299.837V42.2226ZM299.837 36.464H296.198V32.8245H299.837V36.464Z" fill="black"/>
<path d="M124.459 53.664H303.339C303.709 53.6631 304.076 53.7352 304.418 53.8762C304.76 54.0172 305.071 54.2243 305.333 54.4857C305.595 54.7471 305.803 55.0576 305.945 55.3995C306.087 55.7413 306.16 56.1078 306.16 56.4779V234.353H121.645V56.4779C121.645 56.1084 121.718 55.7425 121.859 55.4011C122.001 55.0597 122.208 54.7495 122.469 54.4882C122.731 54.2269 123.041 54.0196 123.382 53.8782C123.724 53.7368 124.09 53.664 124.459 53.664Z" fill="#E5E5E5"/>
<path d="M153.259 114.057C153.26 115.003 152.981 115.928 152.456 116.716C151.931 117.503 151.184 118.117 150.31 118.48C149.436 118.843 148.474 118.938 147.546 118.754C146.618 118.569 145.765 118.114 145.096 117.445C144.427 116.775 143.972 115.923 143.787 114.995C143.603 114.067 143.698 113.105 144.061 112.231C144.424 111.357 145.038 110.61 145.825 110.085C146.612 109.56 147.538 109.281 148.484 109.282C149.75 109.284 150.963 109.787 151.858 110.682C152.753 111.577 153.257 112.791 153.259 114.057Z" fill="#CCCCCC"/>
<path d="M306.16 73.8362L282.28 96.7672C278.781 96.4714 275.263 96.5175 271.774 96.9048C271.614 96.9136 271.454 96.8895 271.303 96.8339C271.153 96.7783 271.016 96.6923 270.9 96.5814C266.428 93.0726 262.259 67.5134 260.449 53.664H259.142C260.58 64.672 264.784 93.4373 270.095 97.6066C270.346 97.8246 270.639 97.9895 270.956 98.0912C271.273 98.1929 271.608 98.2293 271.939 98.1982C274.957 97.8423 278.002 97.764 281.034 97.9643L261.708 116.54L234.519 96.3957C233.163 95.391 231.487 94.9162 229.805 95.0606C228.124 95.2051 226.553 95.9588 225.389 97.18C222.465 100.242 220.249 102.718 218.791 104.542C216.864 106.943 213.824 110.734 210.432 114.862L200.325 106.723C206.324 98.8106 211.512 91.9718 214.573 88.4493C220.8 81.2872 235.213 63.2203 242.781 53.6915H241.116C233.418 63.3923 219.637 80.6474 213.596 87.5962C210.507 91.1462 205.34 97.9918 199.314 105.918L185.554 94.8339C185.631 94.7028 185.658 94.5483 185.631 94.3987C185.604 94.249 185.523 94.1142 185.405 94.019C185.286 93.9237 185.137 93.8744 184.985 93.88C184.833 93.8856 184.688 93.9458 184.577 94.0496L171.064 83.1723C170.999 83.1085 170.922 83.059 170.836 83.0269C170.751 82.9948 170.66 82.981 170.569 82.9861C170.478 82.9913 170.389 83.0155 170.308 83.057C170.227 83.0986 170.156 83.1566 170.098 83.2274C170.041 83.2982 169.999 83.3803 169.975 83.4682C169.952 83.5561 169.947 83.6481 169.96 83.7381C169.974 83.8282 170.007 83.9143 170.056 83.9911C170.105 84.0678 170.17 84.1334 170.246 84.1837L183.758 95.061C181.825 97.5446 176.396 104.548 172.523 109.777L136.307 81.8582C136.169 81.7651 136.001 81.7278 135.837 81.7541C135.673 81.7804 135.525 81.8682 135.423 81.9997C135.321 82.1311 135.274 82.2964 135.29 82.4618C135.305 82.6273 135.384 82.7805 135.508 82.8902L171.752 110.83C170.954 111.917 170.246 112.894 169.688 113.713C165.395 119.905 159.65 125.815 149.571 122.588C139.251 119.285 137.875 111.697 137.875 111.38C137.849 111.226 137.772 111.085 137.655 110.981L128.243 102.897C128.931 97.8749 129.736 90.8229 130.617 80.8813C131.552 70.3618 132.289 59.856 132.681 53.6571H131.408C130.369 69.4811 128.752 89.2886 127.08 101.893L122.148 97.696V99.416L126.867 103.475C126.007 109.667 125.133 113.795 124.328 114.366C123.569 114.718 122.839 115.132 122.148 115.605V117.187C122.996 116.557 123.904 116.01 124.858 115.556C125.416 115.309 126.482 114.868 128.023 104.466L136.596 111.834C136.905 113.286 138.962 120.572 149.152 123.833C151.022 124.457 152.979 124.784 154.951 124.803C162.457 124.803 167.267 119.478 170.734 114.483C171.284 113.685 171.986 112.722 172.798 111.656L186.737 122.402C179.258 132.034 171.897 140.978 166.751 145.794C160.614 151.504 152.874 158.178 146.572 163.531C137.744 157.738 129.468 151.477 129.372 151.394H129.33L129.289 151.36L122.189 147.507V148.986L127.218 151.738C126.014 152.041 124.225 152.475 122.189 152.894V154.112C125.347 153.465 127.947 152.784 128.842 152.543C130.293 153.637 137.655 159.134 145.546 164.322C139.595 169.351 135.171 172.97 135.082 173.046C134.954 173.16 134.873 173.318 134.855 173.488C134.837 173.659 134.884 173.83 134.986 173.968C135.101 174.095 135.259 174.174 135.429 174.191C135.6 174.207 135.77 174.16 135.908 174.057C135.997 173.981 140.572 170.232 146.682 165.072C148.498 166.248 150.321 167.397 152.096 168.464L156.224 170.892C159.774 172.991 164.095 175.55 168.367 178.24L155.901 191.787C155.819 191.879 155.764 191.992 155.741 192.113C155.718 192.234 155.728 192.359 155.77 192.475C155.818 192.587 155.895 192.684 155.993 192.757C156.091 192.829 156.206 192.874 156.327 192.888C156.444 192.888 167.858 193.885 177.132 206.95C185.203 218.316 192.86 227.872 206.379 234.347H209.544C194.635 227.996 186.648 218.103 178.192 206.194C170.301 195.069 161.04 192.392 157.696 191.746L169.489 178.942C178.013 184.384 186.063 190.287 187.019 194.112C188.395 199.692 195.179 206.572 198.433 209.874C199.265 210.721 199.981 211.45 200.139 211.691C201.047 213.067 207.019 216.445 208.182 217.112L208.326 217.167C209.496 217.497 216.679 219.451 222.375 219.451C225.348 219.451 227.914 218.922 229.015 217.346C230.776 214.842 235.895 210.81 240.023 207.576C242.94 205.279 245.465 203.297 246.387 202.189C246.641 201.88 247.811 200.813 249.682 199.107L254.539 203.964L217.456 234.326H219.52L255.468 204.886L261.88 211.299L235.977 234.326H237.938L263.263 211.815C263.329 211.754 263.381 211.681 263.417 211.599C263.452 211.517 263.471 211.429 263.471 211.34C263.471 211.251 263.452 211.162 263.417 211.081C263.381 210.999 263.329 210.926 263.263 210.865L256.459 204.061L287.605 178.55L298.186 187.067L259.06 221.846C258.388 222.445 257.913 223.233 257.698 224.107C257.484 224.981 257.539 225.9 257.857 226.742C258.175 227.584 258.741 228.31 259.481 228.824C260.22 229.338 261.097 229.615 261.997 229.62C263.023 229.617 264.016 229.263 264.811 228.616L305.651 193.073L306.229 193.541V190.844L305.616 191.374L300.202 187.019L306.229 181.66V179.919L299.177 186.187L288.637 177.704L306.16 163.331V161.68L287.515 176.899L280.897 171.567C289.655 163.923 298.681 156.08 306.146 149.599V147.872C300.89 152.433 290.556 161.412 279.865 170.741L266.793 160.221C278.303 148.883 293.783 133.534 296.232 130.541C300.36 125.491 301.991 110.782 298.035 103.75C295.647 99.5054 289.779 97.641 283.958 96.9392L306.139 75.6112L306.16 73.8362ZM299.136 187.92L304.536 192.268L263.889 227.645C263.251 228.183 262.425 228.444 261.593 228.373C260.762 228.301 259.992 227.902 259.455 227.264C258.918 226.625 258.656 225.799 258.728 224.967C258.799 224.136 259.198 223.367 259.837 222.829L299.136 187.92ZM219.795 105.36C221.171 103.592 223.462 101.081 226.318 98.0813C227.264 97.0927 228.539 96.483 229.903 96.3665C231.267 96.25 232.627 96.6346 233.727 97.4483L260.752 117.442L239.28 138.082L211.436 115.653C216.08 109.984 219.699 105.464 219.795 105.34V105.36ZM199.52 107.741L209.585 115.845C205.774 120.489 201.612 125.477 198.137 129.516L188.505 122.113C192.275 117.297 196.025 112.357 199.52 107.741ZM173.527 110.548C177.38 105.34 182.802 98.3496 184.742 95.8522L198.502 106.922C195 111.552 191.243 116.492 187.494 121.315L173.527 110.548ZM167.597 146.675C172.805 141.859 180.215 132.791 187.728 123.138L197.284 130.507C194.064 134.208 191.567 136.898 190.72 137.387C188.429 138.701 170.397 147.624 162.01 151.773C163.964 150.025 165.849 148.312 167.604 146.675H167.597ZM169.186 177.277C164.927 174.587 160.559 172.007 156.802 169.785C155.323 168.911 153.947 168.099 152.722 167.363C151.064 166.365 149.365 165.299 147.672 164.205C150.982 161.398 154.669 158.233 158.309 155.041C159.533 154.435 188.333 140.242 191.333 138.529C192.303 137.972 194.993 135.089 198.357 131.222H198.392C198.492 131.223 198.59 131.2 198.68 131.156C198.77 131.112 198.848 131.047 198.908 130.968C198.964 130.894 199.004 130.81 199.024 130.719C199.044 130.629 199.045 130.535 199.025 130.445C202.616 126.317 206.854 121.191 210.569 116.685L238.323 138.976L224.047 152.688H224.013L201.832 179.988L181.9 164.363C181.767 164.269 181.605 164.224 181.443 164.238C181.28 164.252 181.128 164.323 181.013 164.439L169.186 177.277ZM227.866 216.631C225.602 219.864 213.314 217.264 208.67 215.943C206.028 214.45 201.708 211.815 201.144 210.975C200.567 210.265 199.944 209.594 199.279 208.966C196.108 205.746 189.51 199.038 188.202 193.83C187.15 189.613 179.08 183.607 170.314 178.006L181.57 165.787L201.522 181.481C201.659 181.578 201.827 181.623 201.994 181.605C202.162 181.587 202.317 181.509 202.43 181.384L224.027 154.8L230.783 213.507C229.712 214.45 228.738 215.496 227.872 216.631H227.866ZM249.104 197.807C246.951 199.747 245.575 201.027 245.272 201.384C244.44 202.382 241.832 204.425 239.08 206.579C236.672 208.478 234.092 210.514 231.939 212.399L225.182 153.424L239.341 139.822L264.839 160.304C258.303 166.744 253.28 171.649 253.143 171.78C253.044 171.882 252.979 172.011 252.957 172.151L249.104 197.807ZM279.892 172.44L286.476 177.745L255.441 203.16L250.542 198.261C256.5 192.908 267.88 182.932 279.899 172.44H279.892ZM278.86 171.608C268.024 181.068 256.975 190.755 250.652 196.438L254.23 172.578C255.255 171.573 259.961 166.971 265.884 161.143L278.86 171.608ZM265.788 159.396L240.332 138.887L261.846 118.247L287.852 137.511C281.66 143.709 272.936 152.351 265.774 159.396H265.788ZM296.92 104.356C300.587 110.892 299.053 125.03 295.241 129.688C294.416 130.699 292.015 133.211 288.747 136.527L262.768 117.263L282.768 98.1019C288.809 98.7142 294.732 100.524 296.906 104.383L296.92 104.356Z" fill="white"/>
<path d="M299.803 213.486H196.183V231.354H299.803V213.486Z" fill="white"/>
<path d="M209.984 222.018H203.166V229.813H209.984V222.018Z" fill="#6D51FF"/>
<path d="M219.403 221.852H212.585V229.813H219.403V221.852Z" fill="#6D51FF"/>
<path d="M228.822 220.071H222.004V229.813H228.822V220.071Z" fill="#6D51FF"/>
<path d="M238.241 224.618H231.423V229.813H238.241V224.618Z" fill="#6D51FF"/>
<path d="M247.659 219.417H240.841V229.813H247.659V219.417Z" fill="#6D51FF"/>
<path d="M257.085 222.506H250.267V229.813H257.085V222.506Z" fill="#6D51FF"/>
<path d="M266.504 225.912H259.686V229.813H266.504V225.912Z" fill="#6D51FF"/>
<path d="M275.929 223.965H269.104V229.813H275.929V223.965Z" fill="#6D51FF"/>
<path d="M285.341 225.588H278.523V229.813H285.341V225.588Z" fill="#6D51FF"/>
<path d="M294.767 219.417H287.949V229.813H294.767V219.417Z" fill="#6D51FF"/>
<path d="M122.148 234.353H168.244C165.086 232.84 160.338 230.459 159.76 229.599C158.894 228.299 154.119 220.043 151.504 219.61C148.89 219.176 148.03 222.217 148.03 222.217L153.672 231.34L151.504 230.033C151.504 230.033 146.289 224.384 144.989 223.517C143.689 222.651 144.989 219.176 145.423 216.569C145.856 213.961 148.863 212.227 149.764 210.053C150.665 207.879 149.764 201.364 149.764 199.197C149.764 197.029 145.856 190.507 143.248 185.292C140.641 180.077 131.958 170.094 127.177 167.92C125.562 167.256 123.862 166.823 122.127 166.634L122.148 234.353Z" fill="#CCCCCC"/>
<path d="M230.576 105.367L223.628 114.057L232.317 125.354L248.389 117.098L230.576 105.367Z" fill="#CCCCCC"/>
<path d="M239.266 144.466L229.276 154.023L233.184 175.302L244.04 178.343L247.522 169.22L257.945 159.231L239.266 144.466Z" fill="#CCCCCC"/>
<path d="M124.459 53.664H303.339C303.709 53.6631 304.076 53.7352 304.418 53.8762C304.76 54.0172 305.071 54.2243 305.333 54.4857C305.595 54.7471 305.803 55.0576 305.945 55.3995C306.087 55.7413 306.16 56.1078 306.16 56.4779V234.353H121.645V56.4779C121.645 56.1084 121.718 55.7425 121.859 55.4011C122.001 55.0597 122.208 54.7495 122.469 54.4882C122.731 54.2269 123.041 54.0196 123.382 53.8782C123.724 53.7368 124.09 53.664 124.459 53.664V53.664Z" stroke="#263238" stroke-linecap="round" stroke-linejoin="round"/>
<path d="M124.459 53.664H303.339C303.709 53.6631 304.076 53.7352 304.418 53.8762C304.76 54.0172 305.071 54.2243 305.333 54.4857C305.595 54.7471 305.803 55.0576 305.945 55.3995C306.087 55.7413 306.16 56.1078 306.16 56.4779V88.408H121.645V56.4779C121.645 56.1084 121.718 55.7425 121.859 55.4011C122.001 55.0597 122.208 54.7495 122.469 54.4882C122.731 54.2269 123.041 54.0196 123.382 53.8782C123.724 53.7368 124.09 53.664 124.459 53.664Z" fill="#6D51FF" stroke="#263238" stroke-linecap="round" stroke-linejoin="round"/>
<path d="M279.225 75.3979H133.713V81.4798H279.225V75.3979Z" fill="white" stroke="#263238" stroke-linecap="round" stroke-linejoin="round"/>
<path d="M303.477 53.664H133.596V69.3091H306.16V56.3266C306.159 55.9754 306.089 55.6279 305.954 55.3039C305.818 54.98 305.62 54.6859 305.371 54.4385C305.122 54.1912 304.826 53.9955 304.501 53.8626C304.176 53.7297 303.828 53.6622 303.477 53.664Z" fill="#808080" stroke="#263238" stroke-linecap="round" stroke-linejoin="round"/>
<path d="M124.459 53.664H303.339C303.709 53.6631 304.076 53.7352 304.418 53.8762C304.76 54.0172 305.071 54.2243 305.333 54.4857C305.595 54.7471 305.803 55.0576 305.945 55.3995C306.087 55.7413 306.16 56.1078 306.16 56.4779V63.8395H121.645V56.4779C121.645 56.1084 121.718 55.7425 121.859 55.4011C122.001 55.0597 122.208 54.7495 122.469 54.4882C122.731 54.2269 123.041 54.0196 123.382 53.8782C123.724 53.7368 124.09 53.664 124.459 53.664Z" fill="#263238" stroke="#263238" stroke-linecap="round" stroke-linejoin="round"/>
<path d="M298.564 60.317C299.332 60.317 299.954 59.6948 299.954 58.9272C299.954 58.1597 299.332 57.5374 298.564 57.5374C297.797 57.5374 297.175 58.1597 297.175 58.9272C297.175 59.6948 297.797 60.317 298.564 60.317Z" fill="white"/>
<path d="M292.827 60.317C293.594 60.317 294.216 59.6948 294.216 58.9272C294.216 58.1597 293.594 57.5374 292.827 57.5374C292.059 57.5374 291.437 58.1597 291.437 58.9272C291.437 59.6948 292.059 60.317 292.827 60.317Z" fill="white"/>
<path d="M287.089 60.317C287.856 60.317 288.478 59.6948 288.478 58.9272C288.478 58.1597 287.856 57.5374 287.089 57.5374C286.321 57.5374 285.699 58.1597 285.699 58.9272C285.699 59.6948 286.321 60.317 287.089 60.317Z" fill="white"/>
<path d="M257.931 115.584H235.021C234.594 115.583 234.171 115.666 233.776 115.829C233.381 115.992 233.022 116.231 232.72 116.533C232.418 116.834 232.178 117.193 232.014 117.587C231.851 117.982 231.767 118.404 231.767 118.831V140.352C231.767 140.779 231.851 141.202 232.014 141.596C232.178 141.991 232.418 142.349 232.72 142.651C233.022 142.952 233.381 143.191 233.776 143.354C234.171 143.517 234.594 143.6 235.021 143.599H241.798L246.779 153.424L251.354 143.62H257.931C258.792 143.62 259.618 143.278 260.227 142.669C260.836 142.06 261.179 141.234 261.179 140.373V118.831C261.179 117.97 260.836 117.144 260.227 116.535C259.618 115.926 258.792 115.584 257.931 115.584Z" fill="#263238" stroke="#263238" stroke-linecap="round" stroke-linejoin="round"/>
<path d="M242.176 126.035L242.967 120.772H244.591V128.188H243.49V122.87L242.685 128.188H241.584L240.711 122.946V128.188H239.699V120.772H241.316L242.176 126.035Z" fill="#6D51FF"/>
<path d="M245.313 122.553C245.313 122.084 245.5 121.635 245.831 121.303C246.163 120.972 246.612 120.785 247.081 120.785C247.55 120.785 248 120.972 248.332 121.303C248.663 121.635 248.85 122.084 248.85 122.553V126.406C248.85 126.875 248.663 127.325 248.332 127.657C248 127.988 247.55 128.174 247.081 128.174C246.612 128.174 246.163 127.988 245.831 127.657C245.5 127.325 245.313 126.875 245.313 126.406V122.553ZM246.476 126.482C246.476 127.012 246.71 127.211 247.081 127.211C247.453 127.211 247.68 127.012 247.68 126.482V122.464C247.68 121.934 247.446 121.735 247.081 121.735C246.717 121.735 246.476 121.934 246.476 122.464V126.482Z" fill="#6D51FF"/>
<path d="M250.638 122.815V128.188H249.593V120.772H251.051L252.248 125.209V120.772H253.287V128.188H252.09L250.638 122.815Z" fill="#6D51FF"/>
<path d="M244.405 131.903C244.034 131.903 243.807 132.103 243.807 132.633V133.424H242.699V132.736C242.699 131.546 243.297 130.871 244.44 130.871C245.582 130.871 246.173 131.559 246.173 132.736C246.173 135.061 243.855 135.935 243.855 137.153C243.848 137.205 243.848 137.259 243.855 137.311H246.056V138.371H242.685V137.456C242.685 135.275 244.997 134.917 244.997 132.777C245.011 132.096 244.777 131.903 244.405 131.903Z" fill="#6D51FF"/>
<path d="M248.602 131.903C248.23 131.903 247.996 132.103 247.996 132.633V133.424H246.896V132.736C246.896 131.546 247.494 130.871 248.636 130.871C249.778 130.871 250.37 131.559 250.37 132.736C250.37 135.061 248.052 135.935 248.052 137.153C248.045 137.205 248.045 137.259 248.052 137.311H250.253V138.371H246.882V137.456C246.882 135.275 249.194 134.917 249.194 132.777C249.207 132.096 248.973 131.903 248.602 131.903Z" fill="#6D51FF"/>
<path d="M246.476 160.676C247.878 160.676 249.015 159.539 249.015 158.137C249.015 156.735 247.878 155.598 246.476 155.598C245.074 155.598 243.937 156.735 243.937 158.137C243.937 159.539 245.074 160.676 246.476 160.676Z" fill="#6D51FF" stroke="#263238" stroke-linecap="round" stroke-linejoin="round"/>
<path d="M168.127 97.1456C169.529 97.1456 170.665 96.009 170.665 94.6069C170.665 93.2048 169.529 92.0682 168.127 92.0682C166.724 92.0682 165.588 93.2048 165.588 94.6069C165.588 96.009 166.724 97.1456 168.127 97.1456Z" fill="#6D51FF" stroke="#263238" stroke-linecap="round" stroke-linejoin="round"/>
<path d="M204.123 157.291C204.121 157.792 203.971 158.283 203.692 158.699C203.412 159.116 203.015 159.44 202.551 159.631C202.087 159.822 201.577 159.872 201.085 159.773C200.593 159.674 200.141 159.432 199.786 159.076C199.432 158.721 199.191 158.269 199.094 157.776C198.996 157.284 199.047 156.774 199.239 156.311C199.432 155.847 199.757 155.451 200.174 155.172C200.592 154.894 201.082 154.745 201.584 154.745C201.918 154.745 202.249 154.811 202.557 154.939C202.866 155.067 203.146 155.254 203.382 155.491C203.617 155.727 203.804 156.008 203.931 156.317C204.059 156.626 204.124 156.957 204.123 157.291Z" fill="#6D51FF" stroke="#263238" stroke-linecap="round" stroke-linejoin="round"/>
<path d="M147.652 140.696C149.054 140.696 150.19 139.559 150.19 138.157C150.19 136.755 149.054 135.619 147.652 135.619C146.25 135.619 145.113 136.755 145.113 138.157C145.113 139.559 146.25 140.696 147.652 140.696Z" fill="#6D51FF" stroke="#263238" stroke-linecap="round" stroke-linejoin="round"/>
<path d="M158.185 202.059C158.185 202.562 158.036 203.054 157.756 203.473C157.476 203.892 157.079 204.218 156.614 204.411C156.148 204.603 155.637 204.654 155.143 204.555C154.649 204.457 154.195 204.215 153.839 203.859C153.483 203.503 153.241 203.049 153.143 202.555C153.044 202.062 153.095 201.55 153.288 201.085C153.48 200.619 153.806 200.222 154.225 199.942C154.644 199.662 155.136 199.513 155.639 199.513C156.315 199.513 156.962 199.781 157.439 200.259C157.917 200.736 158.185 201.384 158.185 202.059Z" fill="#6D51FF" stroke="#263238" stroke-linecap="round" stroke-linejoin="round"/>
<path d="M275.881 200.394C277.283 200.394 278.42 199.257 278.42 197.855C278.42 196.453 277.283 195.316 275.881 195.316C274.479 195.316 273.342 196.453 273.342 197.855C273.342 199.257 274.479 200.394 275.881 200.394Z" fill="#6D51FF" stroke="#263238" stroke-linecap="round" stroke-linejoin="round"/>
<path d="M288.891 122.196C290.293 122.196 291.43 121.059 291.43 119.657C291.43 118.255 290.293 117.118 288.891 117.118C287.489 117.118 286.352 118.255 286.352 119.657C286.352 121.059 287.489 122.196 288.891 122.196Z" fill="#6D51FF" stroke="#263238" stroke-linecap="round" stroke-linejoin="round"/>
<path d="M275.276 97.5722C276.678 97.5722 277.814 96.4356 277.814 95.0335C277.814 93.6314 276.678 92.4947 275.276 92.4947C273.874 92.4947 272.737 93.6314 272.737 95.0335C272.737 96.4356 273.874 97.5722 275.276 97.5722Z" fill="#6D51FF" stroke="#263238" stroke-linecap="round" stroke-linejoin="round"/>
<path d="M282.204 160.841C282.204 161.344 282.054 161.837 281.774 162.256C281.494 162.674 281.096 163.001 280.631 163.193C280.165 163.386 279.653 163.436 279.159 163.337C278.665 163.238 278.212 162.995 277.856 162.638C277.5 162.282 277.258 161.827 277.161 161.333C277.063 160.839 277.115 160.327 277.308 159.862C277.502 159.397 277.829 159 278.249 158.721C278.669 158.442 279.161 158.294 279.665 158.295C279.999 158.295 280.33 158.361 280.638 158.489C280.947 158.617 281.227 158.805 281.463 159.041C281.699 159.278 281.885 159.558 282.013 159.867C282.14 160.176 282.205 160.507 282.204 160.841Z" fill="#6D51FF" stroke="#263238" stroke-linecap="round" stroke-linejoin="round"/>
<path d="M212.172 136.96C213.574 136.96 214.711 135.824 214.711 134.421C214.711 133.019 213.574 131.883 212.172 131.883C210.77 131.883 209.634 133.019 209.634 134.421C209.634 135.824 210.77 136.96 212.172 136.96Z" fill="#6D51FF" stroke="#263238" stroke-linecap="round" stroke-linejoin="round"/>
<path d="M65.704 245.616C65.704 245.616 67.252 262.816 67.768 266.428C68.284 270.04 66.048 272.276 63.812 274.684C61.576 277.092 60.716 282.08 60.716 285.864C60.716 289.648 60.2 308.568 60.2 309.772C60.2 310.976 59.856 313.9 59.856 313.9C59.856 313.9 65.36 313.728 66.048 313.728C66.736 313.728 69.316 303.924 70.004 301.172C70.692 298.42 76.024 281.048 78.088 276.232C80.152 271.416 80.152 267.804 81.012 265.912C81.872 264.02 82.904 248.54 82.904 248.54C82.904 248.54 92.192 264.88 92.536 267.116C92.88 269.352 93.052 269.868 92.192 271.76C91.332 273.652 89.44 277.092 89.612 284.488C89.784 291.884 93.8432 304.97 93.8432 304.97L94.3592 313.054C94.3592 313.054 97.4552 314.258 99.0032 314.946C100.551 315.634 102.959 312.022 102.959 312.022C102.959 312.022 102.856 305.988 102.684 301.516C102.512 297.044 103.716 280.876 104.404 278.124C105.092 275.372 106.124 269.352 105.436 265.568C104.748 261.784 102.512 244.412 102.512 244.412C102.512 244.412 76.368 245.96 73.1 245.444C69.832 244.928 65.532 244.756 65.532 244.756L65.704 245.616Z" fill="#263238" stroke="#263238" stroke-linecap="round" stroke-linejoin="round"/>
<path d="M69.144 308.052L70.176 313.384C70.176 313.384 74.476 316.996 76.196 318.372C77.916 319.748 78.948 319.404 78.948 320.608C78.948 321.812 77.744 323.704 74.82 324.22C71.896 324.736 67.94 324.048 64.672 323.016C62.813 322.475 61.1547 321.398 59.9042 319.92C59.9042 319.92 58.1016 320.34 58.1016 318.276C58.1016 316.212 59.5877 311.533 59.5877 311.533C59.5877 311.533 58.8997 308.974 59.5877 308.63C60.2757 308.286 62.608 310.804 62.608 310.804C62.608 310.804 62.952 304.784 69.144 308.052Z" fill="white" stroke="#263238" stroke-linecap="round" stroke-linejoin="round"/>
<path d="M78.8586 321.2C78.5053 321.093 78.1258 321.112 77.7853 321.255C75.9025 322.317 73.7857 322.895 71.6245 322.938C69.4633 322.982 67.325 322.488 65.4013 321.502C61.349 319.562 59.2781 317.615 58.308 316.473C58.1837 317.073 58.1123 317.684 58.0947 318.296C58.0947 320.36 59.8973 319.941 59.8973 319.941C61.1525 321.412 62.8131 322.482 64.672 323.016C67.94 324.048 71.896 324.736 74.82 324.22C77.2968 323.78 78.5352 322.355 78.8586 321.2Z" fill="#D2F4DC" stroke="#263238" stroke-linecap="round" stroke-linejoin="round"/>
<path d="M104.466 307.894C103.968 307.8 103.454 307.873 103.001 308.1C102.549 308.328 102.184 308.698 101.962 309.153C101.191 310.77 100.42 312.93 100.42 312.93C99.1213 312.81 97.8346 312.58 96.5746 312.242C95.9912 311.916 95.4696 311.489 95.0335 310.983C95.0335 310.983 93.4923 307.928 92.5291 309.008C91.5659 310.088 93.4923 313.68 93.4923 313.68C93.4923 313.68 91.9512 316.556 91.9512 318.358C91.9949 319.591 92.2557 320.807 92.7218 321.95C94.5543 322.368 96.4227 322.61 98.3015 322.672C100.806 322.672 100.998 321.95 103.695 321.95C106.392 321.95 113.327 323.566 115.632 323.03C117.937 322.493 120.063 320.869 119.87 319.796C119.678 318.723 111.779 316.019 109.275 314.402C106.771 312.785 106.392 312.964 106.007 312.242C105.622 311.52 104.466 307.894 104.466 307.894Z" fill="white" stroke="#263238" stroke-linecap="round" stroke-linejoin="round"/>
<path d="M119.877 319.92C117.221 322.603 113.685 322.19 110.685 321.585C106.996 320.745 103.209 320.416 99.4298 320.608C97.0263 320.746 94.6153 320.665 92.2264 320.367C92.3527 320.893 92.5183 321.408 92.7218 321.908C94.5543 322.327 96.4227 322.569 98.3015 322.631C100.806 322.631 100.998 321.908 103.695 321.908C106.392 321.908 113.327 323.525 115.632 322.988C117.827 322.479 119.843 321 119.877 319.92Z" fill="#6D51FF" stroke="#263238" stroke-linecap="round" stroke-linejoin="round"/>
<path d="M61.748 239.424L61.232 247.102C61.232 247.102 74.132 250.026 84.796 249.723C95.46 249.421 106.812 244.949 106.812 244.949L104.576 236.94C104.576 236.94 81.012 236.789 76.368 236.479C71.724 236.17 68.8 232.936 67.08 233.397C65.36 233.858 63.296 239.252 63.296 239.252L61.748 239.424Z" fill="white" stroke="#263238" stroke-linecap="round" stroke-linejoin="round"/>
<path d="M104.576 231.34L106.124 239.252C106.124 239.252 102.856 241.144 92.88 242.004C82.904 242.864 70.176 241.66 70.176 241.66L67.768 236.5L66.908 242.52H61.92C61.4386 242.533 60.9629 242.414 60.544 242.176L62.092 235.812C62.092 235.812 62.78 229.448 66.048 227.9C69.316 226.352 72.068 228.072 74.304 230.136C76.54 232.2 79.12 231.856 82.732 231.856C86.344 231.856 101.652 230.308 101.652 230.308C101.652 230.308 104.232 229.448 104.576 231.34Z" fill="#969696" stroke="#263238" stroke-linecap="round" stroke-linejoin="round"/>
<path d="M99.416 172.86C99.416 172.86 105.608 188.684 108.188 194.36C110.768 200.036 113.176 206.572 112.832 210.184C112.488 213.796 108.188 223.256 108.188 223.256C108.188 223.256 104.06 196.08 103.2 193.328C102.34 190.576 98.384 175.268 98.384 175.268C98.384 175.268 96.664 172 99.416 172.86Z" fill="#6D51FF" stroke="#263238" stroke-linecap="round" stroke-linejoin="round"/>
<path d="M65.6421 166.861C65.6421 166.861 62.0301 170.61 60.9155 175.192C59.801 179.774 58.9754 236.982 58.9754 237.952C58.9754 238.922 63.1034 236.7 63.9703 236.287C64.8371 235.874 68.2771 229.345 68.2771 229.345L69.9421 236.005C69.9421 236.005 77.5789 235.172 83.9704 235.172C90.3619 235.172 107.156 233.645 107.156 233.645C107.156 233.645 108.683 224.343 108.532 219.341C108.381 214.34 107.328 206.434 107.328 205.182C107.328 203.93 102.051 177.552 100.111 173.665C98.1707 169.778 95.6664 166.303 95.2467 166.028C94.8271 165.753 89.8322 162.829 85.1125 162.588C80.3928 162.347 77.2005 161.061 73.0312 163.008C68.8619 164.955 65.6421 166.861 65.6421 166.861Z" fill="#6D51FF" stroke="#263238" stroke-linecap="round" stroke-linejoin="round"/>
<path d="M92.7149 183.937C92.7149 183.937 95.0747 197.545 95.7696 202.128C96.4645 206.71 97.9918 224.618 97.9918 227.26V233.507" stroke="#263238" stroke-linecap="round" stroke-linejoin="round"/>
<path d="M88.5525 189.771C88.5525 189.771 91.1875 203.38 92.5773 211.567C93.967 219.754 93.568 231.423 93.568 231.423" stroke="#263238" stroke-linecap="round" stroke-linejoin="round"/>
<path d="M73.5541 190.879L85.4978 189.771L85.9106 192.406L74.3866 193.376" stroke="#263238" stroke-linecap="round" stroke-linejoin="round"/>
<path d="M103.406 188.099L96.4645 188.656L97.0218 191.016L103.131 190.466" stroke="#263238" stroke-linecap="round" stroke-linejoin="round"/>
<path d="M83.4131 154.36C83.4131 154.36 77.0216 153.114 75.0814 153.947C73.1413 154.779 71.3318 158.109 70.7746 159.224C70.2173 160.338 64.3899 162.664 63.9702 164.356C63.5506 166.049 63.8326 168.801 64.5275 169.496C65.2224 170.191 69.2472 169.915 70.2242 170.184C71.2011 170.452 84.2456 179.073 86.4678 180.462C88.6901 181.852 92.5773 183.792 93.1346 183.214C93.6918 182.636 97.1594 174.064 97.696 170.053C98.2326 166.042 97.5515 165.051 95.749 161.721C93.9464 158.391 86.743 154.8 83.4131 154.36Z" fill="#263238" stroke="#263238" stroke-linecap="round" stroke-linejoin="round"/>
<path d="M81.4661 143.393C81.4661 143.393 82.4431 149.502 82.4431 151.167C82.4431 152.832 79.808 160.751 79.808 160.751C79.808 160.751 85.085 172.138 88.0021 175.33C90.9192 178.522 92.309 179.217 92.309 179.217C92.309 179.217 92.7218 172.688 93.1415 169.633C93.5611 166.579 97.9575 157.648 97.9575 157.648C97.9575 157.648 91.3458 158.667 90.5133 154.36C89.6808 150.053 89.956 146.31 89.1373 144.088C88.3186 141.866 83.1379 142.416 81.4661 143.393Z" fill="white" stroke="#263238" stroke-linecap="round" stroke-linejoin="round"/>
<path d="M90.8504 155.605L87.6787 155.013L87.9402 157.765C87.9402 157.765 89.8941 162.85 93.5474 165.457C93.7381 165.593 93.9356 165.719 94.139 165.836C94.8958 163.648 97.9368 157.662 97.9368 157.662C97.9368 157.662 92.192 159.244 90.8504 155.605Z" fill="#263238" stroke="#263238" stroke-linecap="round" stroke-linejoin="round"/>
<path d="M102.024 141.687L101.803 145.498C101.803 145.498 105.243 147.989 105.587 149.193C105.931 150.397 103.922 151.945 103.922 151.945C103.922 151.945 103.613 158.522 103.042 159.554C102.471 160.586 99.6018 160.669 98.0194 160.682C96.437 160.696 88.5869 158.44 87.2315 157.242C85.8762 156.045 84.2387 151.738 84.2387 151.738C84.2387 151.738 82.505 145.595 82.2366 144.659C81.9683 143.723 82.9246 142.444 87.0526 141.143C91.1806 139.843 102.244 139.898 102.024 141.687Z" fill="white" stroke="#263238" stroke-linecap="round" stroke-linejoin="round"/>
<path d="M83.4682 146.166C83.4682 146.166 84.4176 148.285 86.2202 146.95C87.3519 145.962 88.1077 144.613 88.3598 143.132L77.8472 145.98C77.8472 145.98 77.0285 150.259 78.6797 152.296C80.3309 154.332 82.7389 153.176 82.6013 151.429C82.4637 149.681 83.4682 146.166 83.4682 146.166Z" fill="#263238" stroke="#263238" stroke-linecap="round" stroke-linejoin="round"/>
<path d="M101.053 154.112C101.053 154.112 98.7624 154.181 97.4139 152.97" stroke="#263238" stroke-linecap="round" stroke-linejoin="round"/>
<path d="M98.5629 145.767C98.7418 146.393 98.6454 146.971 98.3496 147.053C98.0538 147.136 97.6616 146.695 97.4896 146.069C97.3176 145.443 97.4139 144.865 97.7098 144.783C98.0056 144.7 98.384 145.168 98.5629 145.767Z" fill="#263238"/>
<path d="M77.6752 146.4C77.6752 146.4 83.8672 145.368 91.3595 143.255C98.8518 141.143 102.106 139.932 102.106 139.932L98.7624 129.378C98.3598 128.454 97.6224 127.717 96.6984 127.314C94.5587 126.351 90.1142 126.571 86.915 127.067C82.3536 127.755 78.8242 129.069 77.001 132.323C75.5934 134.98 75.2302 138.067 75.9827 140.978C76.485 142.691 77.6752 146.4 77.6752 146.4Z" fill="#263238" stroke="#263238" stroke-linecap="round" stroke-linejoin="round"/>
<path d="M88.8208 143.971C88.8208 143.971 100.193 143.359 104.542 142.423C108.89 141.487 112.474 136.286 112.474 136.286L102.058 137.662C97.0951 138.331 92.4663 140.538 88.8208 143.971Z" fill="#263238" stroke="#263238" stroke-linecap="round" stroke-linejoin="round"/>
<path d="M84.5002 147.067C84.5002 147.067 83.537 144.164 81.0602 145.147C78.5834 146.131 79.9525 150.947 81.7963 152.874C83.6402 154.8 85.9243 152.144 85.9243 152.144" fill="white"/>
<path d="M84.5002 147.067C84.5002 147.067 83.537 144.164 81.0602 145.147C78.5834 146.131 79.9525 150.947 81.7963 152.874C83.6402 154.8 85.9243 152.144 85.9243 152.144" stroke="#263238" stroke-linecap="round" stroke-linejoin="round"/>
<path d="M96.6021 205.712L108.704 196.665C108.786 196.606 108.886 196.579 108.986 196.589L117.469 197.401C117.572 197.412 117.669 197.455 117.746 197.524C117.823 197.592 117.877 197.684 117.9 197.785C117.923 197.885 117.913 197.991 117.873 198.086C117.833 198.182 117.764 198.262 117.676 198.316L106.888 204.763L96.6021 205.712Z" fill="#263238" stroke="#263238" stroke-linecap="round" stroke-linejoin="round"/>
<path d="M89.1029 206.29C90.2878 206.181 91.4077 205.699 92.3021 204.914C93.5474 203.662 95.7421 199.912 96.7397 199.637C99.0296 199.129 101.348 198.757 103.682 198.522C104.659 198.522 105.209 199.21 104.37 200.05C103.53 200.889 99.6499 202.692 99.6499 202.692L99.2371 204.068C99.2371 204.068 109.784 202.822 110.624 202.822C110.981 202.847 111.317 202.999 111.57 203.252C111.823 203.505 111.975 203.841 112 204.198C112 204.749 109.777 206.421 109.089 207.109C107.367 208.563 105.556 209.91 103.668 211.14C102.698 211.691 92.7011 210.858 92.2883 210.858C91.8755 210.858 88.9515 211.546 88.9515 211.546L89.1029 206.29Z" fill="white" stroke="#263238" stroke-linecap="round" stroke-linejoin="round"/>
<path d="M110.768 205.457C110.768 205.457 106.324 206.434 105.353 206.985C104.383 207.535 101.047 206.985 101.047 206.985" stroke="#263238" stroke-linecap="round" stroke-linejoin="round"/>
<path d="M107.569 208.237L104.514 209.207L101.322 209.345" stroke="#263238" stroke-linecap="round" stroke-linejoin="round"/>
<path d="M73.2789 179.912C73.4165 182.409 70.3618 197.545 70.3618 197.545L71.0498 199.768V200.325L90.3482 205.595C90.3482 205.595 90.3482 210.872 89.5157 213.232C88.8638 215.372 88.3536 217.553 87.9883 219.761C87.9883 219.761 79.5191 217.697 72.5771 215.316C65.6352 212.936 54.7992 209.489 52.7214 207.122C50.6437 204.756 51.889 198.798 52.1642 197.821C52.4394 196.844 60.2138 176.438 61.7411 173.665C63.2685 170.892 65.4907 168.25 68.4079 169.083C71.325 169.915 73.5472 173.665 73.8224 175.33" fill="#6D51FF"/>
<path d="M73.2789 179.912C73.4165 182.409 70.3618 197.545 70.3618 197.545L71.0498 199.768V200.325L90.3482 205.595C90.3482 205.595 90.3482 210.872 89.5157 213.232C88.8638 215.372 88.3536 217.553 87.9883 219.761C87.9883 219.761 79.519 217.697 72.5771 215.316C65.6352 212.936 54.7992 209.489 52.7214 207.122C50.6437 204.756 51.889 198.798 52.1642 197.821C52.4394 196.844 60.2138 176.438 61.7411 173.665C63.2685 170.892 65.4907 168.25 68.4079 169.083C71.325 169.915 73.5472 173.665 73.8224 175.33" stroke="#263238" stroke-linecap="round" stroke-linejoin="round"/>
<path d="M60.661 200.8C61.7196 200.173 62.8316 199.641 63.984 199.21C65.2362 198.935 70.0935 200.043 70.0935 200.043" stroke="#263238" stroke-linecap="round" stroke-linejoin="round"/>
<path d="M56.6155 203.098C56.6155 203.098 57.7851 202.41 59.2093 201.605" stroke="#263238" stroke-linecap="round" stroke-linejoin="round"/>
<path d="M65.2843 196.156C64.6027 195.832 63.8807 195.6 63.1378 195.468C62.1677 195.468 57.8608 197.532 57.8608 197.532" stroke="#263238" stroke-linecap="round" stroke-linejoin="round"/>
<path d="M68.972 197.821C68.972 197.821 68.1739 197.435 67.1557 196.974" stroke="#263238" stroke-linecap="round" stroke-linejoin="round"/>
</svg>
