<svg width="362" height="362" viewBox="0 0 362 362" fill="none" xmlns="http://www.w3.org/2000/svg">
    <path d="M278.705 55.196C278.705 55.196 237.554 19.0405 179.662 27.1987C121.769 35.357 76.5296 79.45 38.9109 114.22C1.29226 148.989 -4.47722 197.365 23.4627 231.649C51.4026 265.933 87.6102 246.376 138.584 265.121C189.556 283.865 200.232 296.465 253.416 284.889C306.6 273.314 340.983 209.443 327.845 146.738C314.706 84.033 278.705 55.196 278.705 55.196Z" fill="#6D51FF"/>
    <path opacity="0.8" d="M278.705 55.196C278.705 55.196 237.554 19.0405 179.662 27.1987C121.769 35.357 76.5296 79.45 38.9109 114.22C1.29226 148.989 -4.47722 197.365 23.4627 231.649C51.4026 265.933 87.6102 246.376 138.584 265.121C189.556 283.865 200.232 296.465 253.416 284.889C306.6 273.314 340.983 209.443 327.845 146.738C314.706 84.033 278.705 55.196 278.705 55.196Z" fill="white"/>
    <path d="M320.998 183.31C316.377 180.84 314.27 182.9 312.591 180.84C310.911 178.78 317.222 173.4 304.601 168.03C304.601 168.03 303.766 156.47 286.524 156.03C269.281 155.59 273.913 167.6 269.292 170.49C264.671 173.38 263.409 168.84 258.777 171.73C254.146 174.62 256.253 180.4 252.477 181.23C248.701 182.06 243.642 177.51 239.021 180.4C234.4 183.29 234.39 185.77 232.293 185.77C230.196 185.77 225.983 184.12 223.469 185.77C220.954 187.42 218.003 189.49 218.003 189.49H324.367C324.367 189.49 325.629 185.79 320.998 183.31Z" fill="#6D51FF"/>
    <path opacity="0.5" d="M320.998 183.31C316.377 180.84 314.27 182.9 312.591 180.84C310.911 178.78 317.222 173.4 304.601 168.03C304.601 168.03 303.766 156.47 286.524 156.03C269.281 155.59 273.913 167.6 269.292 170.49C264.671 173.38 263.409 168.84 258.777 171.73C254.146 174.62 256.253 180.4 252.477 181.23C248.701 182.06 243.642 177.51 239.021 180.4C234.4 183.29 234.39 185.77 232.293 185.77C230.196 185.77 225.983 184.12 223.469 185.77C220.954 187.42 218.003 189.49 218.003 189.49H324.367C324.367 189.49 325.629 185.79 320.998 183.31Z" fill="white"/>
    <path d="M293.638 38.83C287.185 35.36 284.244 38.25 281.893 35.36C279.541 32.47 288.356 25 270.727 17.47C270.727 17.47 269.556 1.31 245.464 0.729997C221.372 0.149997 227.845 16.89 221.382 20.93C214.919 24.97 213.148 18.62 206.694 22.66C200.241 26.7 203.163 34.79 197.88 35.94C192.597 37.09 185.534 30.74 179.121 34.79C172.709 38.84 172.658 42.29 169.716 42.29C166.775 42.29 160.902 39.98 157.38 42.29C153.858 44.6 149.736 47.48 149.736 47.48H298.341C298.341 47.48 300.102 42.29 293.638 38.83Z" fill="#6D51FF"/>
    <path opacity="0.5" d="M293.638 38.83C287.185 35.36 284.244 38.25 281.893 35.36C279.541 32.47 288.356 25 270.727 17.47C270.727 17.47 269.556 1.31 245.464 0.729997C221.372 0.149997 227.845 16.89 221.382 20.93C214.919 24.97 213.148 18.62 206.694 22.66C200.241 26.7 203.163 34.79 197.88 35.94C192.597 37.09 185.534 30.74 179.121 34.79C172.709 38.84 172.658 42.29 169.716 42.29C166.775 42.29 160.902 39.98 157.38 42.29C153.858 44.6 149.736 47.48 149.736 47.48H298.341C298.341 47.48 300.102 42.29 293.638 38.83Z" fill="white"/>
    <path d="M123.873 112.62C119.252 110.14 117.145 112.21 115.465 110.14C113.786 108.07 120.086 102.71 107.475 97.34C107.475 97.34 106.631 85.77 89.3986 85.34C72.1665 84.91 76.7875 96.91 72.1563 99.8C67.5252 102.69 66.2732 98.15 61.6522 101.04C57.0312 103.93 59.128 109.71 55.3416 110.54C51.5552 111.37 46.5169 106.82 41.8858 109.71C37.2546 112.6 37.2648 115.08 35.1578 115.08C33.0509 115.08 28.8574 113.43 26.3332 115.08C23.8089 116.73 20.8674 118.8 20.8674 118.8H127.211C127.211 118.8 128.494 115.1 123.873 112.62Z" fill="#6D51FF"/>
    <path opacity="0.5" d="M123.873 112.62C119.252 110.14 117.145 112.21 115.465 110.14C113.786 108.07 120.086 102.71 107.475 97.34C107.475 97.34 106.631 85.77 89.3986 85.34C72.1665 84.91 76.7875 96.91 72.1563 99.8C67.5252 102.69 66.2732 98.15 61.6522 101.04C57.0312 103.93 59.128 109.71 55.3416 110.54C51.5552 111.37 46.5169 106.82 41.8858 109.71C37.2546 112.6 37.2648 115.08 35.1578 115.08C33.0509 115.08 28.8574 113.43 26.3332 115.08C23.8089 116.73 20.8674 118.8 20.8674 118.8H127.211C127.211 118.8 128.494 115.1 123.873 112.62Z" fill="white"/>
    <path d="M164.139 300.57H164.932C166.531 300.51 170.022 300.4 170.978 300.4C172.18 300.4 174.195 302.97 172.383 305.34C170.571 307.71 169.33 310.48 166.754 311.07C164.179 311.66 164.536 313.25 162.683 315.22C160.831 317.19 155.843 317.6 153.227 317C150.611 316.4 153.024 303.56 153.431 303C153.838 302.44 158.296 305.32 164.139 300.57Z" fill="white" stroke="#263238" stroke-linecap="round" stroke-linejoin="round"/>
    <path d="M166.754 311.05C169.37 310.46 170.571 307.69 172.383 305.32C172.753 304.868 172.991 304.327 173.073 303.753C173.156 303.179 173.079 302.595 172.851 302.06C172.168 304.448 170.822 306.602 168.963 308.28C167.151 309.67 165.747 308.88 164.739 310.06C163.731 311.24 162.703 313.62 157.492 313.62C155.662 313.654 153.835 313.435 152.067 312.97C152.067 315.1 152.362 316.78 153.268 316.97C155.884 317.57 160.912 317.17 162.724 315.19C164.536 313.21 164.139 311.64 166.754 311.05Z" fill="white" stroke="#263238" stroke-linecap="round" stroke-linejoin="round"/>
    <path d="M198.542 307.89C198.542 307.89 197.941 315.01 198.338 316.39C198.735 317.77 202.766 319.16 204.985 318.76C207.203 318.36 211.224 315.6 211.224 315.6C211.224 315.6 220.079 312.24 223.295 310.26C226.512 308.28 227.52 305.91 225.107 305.32C222.695 304.73 214.644 303.14 212.232 302.55C209.819 301.96 209.809 304.13 204.577 305.32C199.346 306.51 198.542 307.89 198.542 307.89Z" fill="white" stroke="#263238" stroke-linecap="round" stroke-linejoin="round"/>
    <path d="M223.906 307.89C219.181 310.532 214.273 312.845 209.219 314.81C205.701 316.232 201.76 316.268 198.216 314.91C198.212 315.406 198.256 315.902 198.348 316.39C198.755 317.77 202.776 319.16 204.995 318.76C207.214 318.36 211.234 315.6 211.234 315.6C211.234 315.6 220.089 312.24 223.306 310.26C226.054 308.57 227.184 306.6 225.952 305.69C225.47 306.581 224.765 307.337 223.906 307.89Z" fill="white" stroke="#263238" stroke-linecap="round" stroke-linejoin="round"/>
    <path d="M163.09 168.39C163.09 168.39 160.8 181 159.986 188.07C159.172 195.14 157.258 212.71 157.258 221.12C157.258 229.53 156.729 244.8 156.729 244.8C156.729 244.8 155.945 250.92 154.591 256.45C153.238 261.98 152.647 272.5 152.841 277.66C153.034 282.82 153.034 297.14 153.034 297.14C152.927 298.805 152.927 300.475 153.034 302.14C153.227 304.05 153.614 306.34 155.558 306.34C157.502 306.34 161.004 306.34 162.368 305.2C164.123 303.54 165.166 301.282 165.279 298.89C165.472 296.03 166.296 286.28 166.449 283.99C166.602 281.7 173.452 253.43 174.225 247.51C174.999 241.59 175.396 238.34 175.396 238.34L182.582 201.28L184.729 201.66C184.729 201.66 196.944 246.74 196.944 249.8C196.944 252.86 195.58 266.8 197.137 274.63C198.694 282.46 198.46 309.18 198.46 309.18C199.242 310.016 200.253 310.613 201.371 310.9C203.122 311.28 208.181 310.13 210.125 307.08C212.069 304.03 212.842 298.48 212.842 296.95C212.842 295.42 214.593 264.1 214.593 256.07C214.593 248.04 213.819 238.31 213.819 237.54C213.819 236.77 211.875 200.49 211.295 197.24C210.715 193.99 204.099 167.63 204.099 167.63C204.099 167.63 183.895 173.55 163.09 168.39Z" fill="#263238" stroke="#263238" stroke-linecap="round" stroke-linejoin="round"/>
    <path d="M145.98 140.31C145.98 140.31 143.456 146.62 143.069 149.86C142.683 153.1 144.82 159.03 146.764 160.18C148.708 161.33 155.121 158.84 156.098 157.31C157.075 155.78 161.533 145.85 161.533 145.85C155.936 145.41 150.564 143.496 145.98 140.31Z" fill="white" stroke="#263238" stroke-linecap="round" stroke-linejoin="round"/>
    <path d="M207.488 144.17L199.824 177.56H204.822L212.16 143.51L207.488 144.17Z" fill="#263238" stroke="#263238" stroke-linecap="round" stroke-linejoin="round"/>
    <path d="M213.728 117.86C213.728 117.86 217.392 117.21 218.389 117.86C219.387 118.51 219.407 121.79 219.407 123.1C219.407 124.41 218.389 128.01 218.746 129.65C219.102 131.29 224.751 139.03 227.082 143.95C229.413 148.87 226.42 156.71 223.753 159.95C221.087 163.19 215.743 151.55 214.074 147.62C212.405 143.69 209.748 119.46 209.748 119.46L213.728 117.86Z" fill="white" stroke="#263238" stroke-linecap="round" stroke-linejoin="round"/>
    <path d="M220.853 138.24C220.853 138.24 226.145 147.13 226.339 150C226.532 152.87 225.168 159 223.815 161.08C222.461 163.16 218.959 161.37 216.425 160.03C214.078 158.874 212.219 156.945 211.173 154.58C210.002 152.1 206.857 145.88 206.857 145.88C206.857 145.88 215.417 143.59 220.853 138.24Z" fill="white" stroke="#263238" stroke-linecap="round" stroke-linejoin="round"/>
    <path d="M173.197 101C170.749 101.564 168.395 102.466 166.205 103.68C162.897 105.59 157.645 109.41 155.894 112.46C154.143 115.51 148.902 128.7 146.367 133.67C143.833 138.64 143.069 140.35 143.069 140.35C143.069 140.35 146.123 144.75 150.255 146.47C154.388 148.19 161.533 148.57 161.533 148.57C161.533 148.57 162.551 168.05 163.09 170.92C163.63 173.79 170.286 175.5 180.007 175.92C189.727 176.34 203.336 172.87 205.086 170.92C206.837 168.97 204.506 148.57 204.506 148.57C207.669 148.112 210.789 147.41 213.84 146.47C217.728 145.13 222.787 138.63 222.787 138.63C222.787 138.63 215.784 121.82 214.42 118.96C213.056 116.1 214.033 114.96 208.588 111.13C205.112 108.726 201.398 106.673 197.503 105C197.503 105 189.361 101.18 182.531 100.42C175.701 99.66 173.197 101 173.197 101Z" fill="white" stroke="#263238" stroke-linecap="round" stroke-linejoin="round"/>
    <path d="M201.392 75C201.392 75 203.529 76.15 203.529 77.3C203.529 78.45 201.198 80.93 201.198 80.93C201.407 82.704 201.407 84.496 201.198 86.27C200.811 88.18 202.755 90.27 201.198 91.62C199.641 92.97 194.979 92.96 194.979 92.96L193.615 101.37L176.119 99.07L175.538 93.72C175.538 93.72 170.867 89.9 169.309 85.72C167.752 81.54 167.955 80.37 168.291 77.72C168.627 75.07 171.599 69.5 177.452 68.17C182.573 66.968 187.916 67.034 193.005 68.36C197.117 69.44 201.392 75 201.392 75Z" fill="white" stroke="#263238" stroke-linecap="round" stroke-linejoin="round"/>
    <path d="M193.595 88.21V88.16V88.21Z" fill="white" stroke="#263238" stroke-linecap="round" stroke-linejoin="round"/>
    <path d="M188.567 92.56C190.694 91.709 192.466 90.176 193.595 88.21C193.524 88.35 193.218 88.74 192.262 88.74C191.091 88.74 188.363 86.64 187.59 84.74C186.816 82.84 188.76 80.53 190.114 80.53C191.468 80.53 193.422 83.21 194.979 82.25C196.536 81.29 196.343 77.1 196.343 77.1C196.728 75.169 197.314 73.282 198.094 71.47C196.656 70.061 194.917 68.982 193.005 68.31C187.916 66.984 182.573 66.918 177.452 68.12C171.62 69.45 168.698 74.99 168.291 77.67C167.884 80.35 167.711 81.49 169.309 85.67C170.907 89.85 175.538 93.67 175.538 93.67C178.836 93.9 184.872 94.09 188.567 92.56Z" fill="#263238" stroke="#263238" stroke-linecap="round" stroke-linejoin="round"/>
    <path d="M167.569 103.06C167.569 103.06 171.06 97.52 172.811 96.76C174.561 96 187.203 96 189.727 96.38C192.251 96.76 196.73 99.82 197.503 101.54C198.277 103.26 198.867 104.59 198.867 104.59V105.74C198.867 105.74 190.511 101.92 182.582 101.92C177.556 101.939 172.538 102.32 167.569 103.06Z" fill="white" stroke="#263238" stroke-linecap="round" stroke-linejoin="round"/>
    <path d="M198.867 105.74C197.237 109.168 195.38 112.489 193.31 115.68C191.114 119.196 189.403 122.982 188.221 126.94L194.328 127.56C194.328 127.56 198.572 116.56 201.117 112.97C202.15 111.438 203.286 109.975 204.516 108.59C204.516 108.59 202.094 105.59 198.867 105.74Z" fill="#263238" stroke="#263238" stroke-linecap="round" stroke-linejoin="round"/>
    <path d="M167.569 103.06C167.569 103.06 166.551 110.06 166.999 113.81C167.233 116.999 167.233 120.201 166.999 123.39L162.541 124.85C162.541 124.85 161.268 112.76 161.696 110.05C162.123 107.34 162.541 105.47 162.541 105.47C162.541 105.47 165.37 103 167.569 103.06Z" fill="#263238" stroke="#263238" stroke-linecap="round" stroke-linejoin="round"/>
    <path d="M158.51 167.17C158.51 167.17 155.548 168.17 154.439 173.17C153.329 178.17 156.352 183.6 162.5 186.1C168.648 188.6 178.633 189.85 187.946 190.27C197.259 190.69 204.913 189.85 208.303 184.01C211.692 178.17 210.42 171.92 206.389 170.88C202.358 169.84 197.9 172.13 182.419 170.67C174.379 170.027 166.391 168.858 158.51 167.17Z" fill="#6D51FF" stroke="#263238" stroke-linecap="round" stroke-linejoin="round"/>
    <path d="M195.946 174.38C192.027 178.87 191.05 189.78 198.888 189.78H199.285C203.356 188.98 206.501 187.29 208.374 184.06C211.01 179.52 210.817 174.73 208.71 172.34L205.555 170.25C203.745 170.217 201.948 170.569 200.29 171.282C198.631 171.994 197.15 173.051 195.946 174.38Z" fill="#6D51FF" stroke="#263238" stroke-linecap="round" stroke-linejoin="round"/>
    <path d="M200.679 180.26C200.679 180.26 200.526 183.45 204.374 182.26C205.281 181.904 206.066 181.304 206.643 180.53C207.219 179.755 207.562 178.837 207.631 177.88C207.662 177.645 207.68 177.407 207.682 177.17C207.733 175.57 207.163 174.17 206.002 173.84C203.336 173.11 196.842 177.9 196.842 181.39C196.842 184.88 200.984 186.04 204.679 183.71C208.374 181.38 209.412 178.92 209.117 173.11" stroke="#263238" stroke-linecap="round" stroke-linejoin="round"/>
    <path d="M159.365 120.27C159.365 120.27 176.332 121.73 185.462 121.93C194.592 122.13 199.04 121.31 201.748 124.23C204.455 127.15 207.855 158.41 209.382 164.04C210.908 169.67 208.364 171.34 201.962 173.63C195.559 175.92 185.411 175.92 173.737 173.63C162.062 171.34 156.973 169.63 155.701 164.63C154.428 159.63 155.283 143.57 155.283 134.63C155.283 125.69 154.479 120.48 159.365 120.27Z" fill="#6D51FF" stroke="#263238" stroke-linecap="round" stroke-linejoin="round"/>
    <path d="M199.478 152.84C202.155 152.56 204.787 151.959 207.315 151.05C205.687 140.05 203.621 126.13 201.829 124.23C199.071 121.31 194.613 122.14 185.544 121.93C176.475 121.72 159.446 120.27 159.446 120.27C154.561 120.48 155.375 125.69 155.375 134.65C155.375 138.36 155.222 143.27 155.151 148.12C156.352 148.83 170.286 156.25 199.478 152.84Z" fill="#6D51FF" stroke="#263238" stroke-linecap="round" stroke-linejoin="round"/>
    <path d="M158.887 147.11C159.16 150.132 159.079 153.176 158.642 156.18C158.22 158.704 157.979 161.253 157.92 163.81L162.042 165.48C162.042 165.48 162.775 159.04 163.263 156.18C163.595 153.486 163.759 150.774 163.752 148.06L158.887 147.11Z" fill="#263238" stroke="#263238" stroke-linecap="round" stroke-linejoin="round"/>
    <path d="M190.46 150C190.46 150 190.216 154.3 189.737 157.4C189.259 160.5 188.516 167.84 188.516 167.84H193.371C193.371 167.84 195.071 160.5 195.071 157.64C195.071 154.78 195.315 149.76 195.315 149.76L190.46 150Z" fill="#263238" stroke="#263238" stroke-linecap="round" stroke-linejoin="round"/>
    <path d="M209.432 164C207.946 158.37 204.557 127.11 201.799 124.19C201.373 123.747 200.883 123.37 200.343 123.07C198.572 123.63 195.966 125.01 197.127 128.15C198.827 132.73 200.526 155.25 199.671 162.33C198.816 169.41 194.155 172.76 198.399 174.42L198.633 174.51C199.78 174.283 200.91 173.975 202.012 173.59C208.374 171.34 210.919 169.67 209.432 164Z" fill="#6D51FF" stroke="#263238" stroke-linecap="round" stroke-linejoin="round"/>
    <path d="M182.531 201.25L174.215 199.06" stroke="white" stroke-linecap="round" stroke-linejoin="round"/>
    <path d="M164.434 65.63C164.434 65.63 166.785 78.63 166.785 80.14C166.785 81.65 167.172 82.05 173.401 82.43C179.63 82.81 188.17 83.2 193.035 80.72C197.9 78.24 206.45 72.5 208.201 68.72C209.952 64.94 208.781 64.33 204.13 64.33H198.297C198.297 64.33 196.933 58.79 193.208 57.07C189.483 55.35 183.681 51.91 177.462 54.59C171.243 57.27 166.602 58.54 164.434 65.63Z" fill="#6D51FF" stroke="#263238" stroke-linecap="round" stroke-linejoin="round"/>
    <path d="M196.923 77.66C196.499 78.056 196.172 78.542 195.966 79.08C200.76 76.23 206.766 71.81 208.181 68.68C209.931 64.86 208.761 64.29 204.109 64.29H198.277C198.277 64.29 200.028 69.83 200.028 71.74C200.028 73.65 199.254 75.37 196.923 77.66Z" fill="#263238" stroke="#263238" stroke-linecap="round" stroke-linejoin="round"/>
    <path d="M170.337 80.64C170.337 80.64 168.709 75.05 171.691 74.52C174.673 73.99 177.93 81.18 177.93 81.18C175.387 81.467 172.812 81.284 170.337 80.64Z" fill="#263238" stroke="#263238" stroke-linecap="round" stroke-linejoin="round"/>
    <path d="M251.724 334.47H289.995C289.262 329.87 286.249 330.68 285.852 323.55C285.648 319.96 289.028 315.55 288.743 310.81C288.498 306.92 284.6 302.94 284.295 298.5C284.03 294.5 287.348 290.04 287.033 285.72C286.727 281.64 282.768 277.72 282.422 273.47C282.076 269.22 285.343 264.84 284.956 260.65C284.569 256.46 280.549 252.65 280.122 248.49C279.694 244.33 282.839 239.67 282.351 235.61C281.842 231.3 277.699 227.61 277.139 223.61C276.518 219.18 279.45 214.46 278.768 210.61C277.923 205.93 273.495 202.55 272.559 199.1C270.818 192.67 271.042 186.47 268.986 186.1C266.93 185.73 266.299 191.74 264.64 198.53C263.806 201.94 259.47 205.4 258.757 210.08C258.177 213.87 261.241 218.48 260.742 222.88C260.294 226.83 256.253 230.62 255.866 234.88C255.49 238.88 258.767 243.36 258.452 247.57C258.136 251.78 254.217 255.57 253.953 259.74C253.688 263.91 257.057 268.27 256.823 272.38C256.589 276.49 252.752 280.57 252.548 284.62C252.334 288.91 255.785 293.23 255.602 297.21C255.419 301.61 251.622 305.65 251.53 309.5C251.357 314.18 254.849 318.5 254.747 322.06C254.513 329.78 250.909 328.18 250.777 334.4L251.724 334.47Z" fill="#6D51FF"/>
    <path opacity="0.5" d="M251.724 334.47H289.995C289.262 329.87 286.249 330.68 285.852 323.55C285.648 319.96 289.028 315.55 288.743 310.81C288.498 306.92 284.6 302.94 284.295 298.5C284.03 294.5 287.348 290.04 287.033 285.72C286.727 281.64 282.768 277.72 282.422 273.47C282.076 269.22 285.343 264.84 284.956 260.65C284.569 256.46 280.549 252.65 280.122 248.49C279.694 244.33 282.839 239.67 282.351 235.61C281.842 231.3 277.699 227.61 277.139 223.61C276.518 219.18 279.45 214.46 278.768 210.61C277.923 205.93 273.495 202.55 272.559 199.1C270.818 192.67 271.042 186.47 268.986 186.1C266.93 185.73 266.299 191.74 264.64 198.53C263.806 201.94 259.47 205.4 258.757 210.08C258.177 213.87 261.241 218.48 260.742 222.88C260.294 226.83 256.253 230.62 255.866 234.88C255.49 238.88 258.767 243.36 258.452 247.57C258.136 251.78 254.217 255.57 253.953 259.74C253.688 263.91 257.057 268.27 256.823 272.38C256.589 276.49 252.752 280.57 252.548 284.62C252.334 288.91 255.785 293.23 255.602 297.21C255.419 301.61 251.622 305.65 251.53 309.5C251.357 314.18 254.849 318.5 254.747 322.06C254.513 329.78 250.909 328.18 250.777 334.4L251.724 334.47Z" fill="white"/>
    <path d="M268.152 198.45V332.73" stroke="#263238" stroke-miterlimit="10"/>
    <path d="M274.126 212.53L267.897 217.82L262.798 211.14" stroke="#263238" stroke-miterlimit="10"/>
    <path d="M274.126 235.9L267.897 241.19L262.798 234.51" stroke="#263238" stroke-miterlimit="10"/>
    <path d="M274.126 257.88L267.897 263.17L262.798 256.49" stroke="#263238" stroke-miterlimit="10"/>
    <path d="M274.126 284.04L267.897 289.33L262.798 282.65" stroke="#263238" stroke-miterlimit="10"/>
    <path d="M274.126 310.47L267.897 315.76L262.798 309.08" stroke="#263238" stroke-miterlimit="10"/>
    <path d="M32.5522 311.5H82.2024C81.2456 305.5 77.3473 306.58 76.8282 297.33C76.5738 292.68 80.9607 286.91 80.5739 280.8C80.2685 275.8 75.2098 270.59 74.8129 264.8C74.4566 259.6 78.7723 253.8 78.355 248.22C77.958 242.92 72.8383 237.83 72.3803 232.33C71.9222 226.83 76.1666 221.12 75.6679 215.69C75.1691 210.26 69.9476 205.26 69.398 199.91C68.828 194.4 72.9197 188.47 72.2988 183.2C71.6271 177.61 66.263 172.78 65.5302 167.63C64.7159 161.89 68.5226 155.76 67.6371 150.8C66.5379 144.73 60.7972 140.34 59.586 135.87C57.3264 127.52 57.6114 119.48 54.9446 118.96C52.1049 118.4 51.4636 126.28 49.3058 135.09C48.2269 139.52 42.5982 144 41.672 150.09C40.929 155 44.8986 160.98 44.2471 166.7C43.667 171.82 38.4353 176.7 37.9264 182.3C37.448 187.53 41.6924 193.3 41.275 198.77C40.8679 204.09 35.7889 209.16 35.4326 214.56C35.0764 219.96 39.504 225.62 39.1681 230.95C38.8322 236.28 33.8753 241.58 33.6209 246.84C33.3461 252.4 37.8144 258.01 37.6006 263.17C37.3564 268.89 32.4402 274.17 32.257 279.17C32.0331 285.23 36.5726 290.83 36.4301 295.45C36.1248 305.45 31.4529 303.4 31.3409 311.45L32.5522 311.5Z" fill="#6D51FF"/>
    <path d="M53.8963 135.02V309.24" stroke="#263238" stroke-miterlimit="10"/>
    <path d="M61.6522 153.29L53.5604 160.15L46.9444 151.48" stroke="#263238" stroke-miterlimit="10"/>
    <path d="M61.6522 183.61L53.5604 190.47L46.9444 181.81" stroke="#263238" stroke-miterlimit="10"/>
    <path d="M61.6522 212.13L53.5604 218.99L46.9444 210.33" stroke="#263238" stroke-miterlimit="10"/>
    <path d="M61.6522 246.07L53.5604 252.93L46.9444 244.26" stroke="#263238" stroke-miterlimit="10"/>
    <path d="M61.6522 280.36L53.5604 287.22L46.9444 278.56" stroke="#263238" stroke-miterlimit="10"/>
    <path d="M2.5157 319.13H39.2801C38.5778 314.71 35.6871 315.49 35.3003 308.64C35.107 305.19 38.3539 300.93 38.079 296.4C37.8449 292.67 34.0993 288.84 33.8143 284.57C33.5497 280.72 36.7457 276.45 36.4301 272.3C36.1452 268.37 32.3588 264.61 32.0127 260.53C31.6667 256.45 34.8118 252.23 34.4454 248.21C34.0789 244.19 30.2111 240.49 29.804 236.53C29.3969 232.57 32.4097 228.06 31.9415 224.16C31.4529 220.02 27.4731 216.44 26.9337 212.63C26.3332 208.38 29.1526 203.84 28.491 200.17C27.6869 195.68 23.4018 192.43 22.5366 189.11C20.8674 182.94 21.0709 176.98 19.1065 176.59C17.1421 176.2 16.5212 182.02 14.9232 188.54C14.1191 191.82 9.95611 195.14 9.27416 199.63C8.72452 203.28 11.6661 207.7 11.1877 211.93C10.75 215.72 6.87205 219.36 6.49545 223.48C6.13921 227.36 9.28434 231.63 8.97898 235.68C8.67363 239.73 4.90762 243.37 4.65316 247.37C4.3987 251.37 7.64561 255.56 7.42169 259.51C7.19776 263.46 3.503 267.38 3.35033 271.27C3.14676 275.39 6.40385 279.54 6.29189 283.36C6.11885 287.59 2.47498 291.47 2.34266 295.17C2.17981 299.67 5.53868 303.81 5.39619 307.23C5.17226 314.66 1.7116 313.12 1.58946 319.09L2.5157 319.13Z" fill="#6D51FF"/>
    <path opacity="0.5" d="M2.5157 319.13H39.2801C38.5778 314.71 35.6871 315.49 35.3003 308.64C35.107 305.19 38.3539 300.93 38.079 296.4C37.8449 292.67 34.0993 288.84 33.8143 284.57C33.5497 280.72 36.7457 276.45 36.4301 272.3C36.1452 268.37 32.3588 264.61 32.0127 260.53C31.6667 256.45 34.8118 252.23 34.4454 248.21C34.0789 244.19 30.2111 240.49 29.804 236.53C29.3969 232.57 32.4097 228.06 31.9415 224.16C31.4529 220.02 27.4731 216.44 26.9337 212.63C26.3332 208.38 29.1526 203.84 28.491 200.17C27.6869 195.68 23.4018 192.43 22.5366 189.11C20.8674 182.94 21.0709 176.98 19.1065 176.59C17.1421 176.2 16.5212 182.02 14.9232 188.54C14.1191 191.82 9.95611 195.14 9.27416 199.63C8.72452 203.28 11.6661 207.7 11.1877 211.93C10.75 215.72 6.87205 219.36 6.49545 223.48C6.13921 227.36 9.28434 231.63 8.97898 235.68C8.67363 239.73 4.90762 243.37 4.65316 247.37C4.3987 251.37 7.64561 255.56 7.42169 259.51C7.19776 263.46 3.503 267.38 3.35033 271.27C3.14676 275.39 6.40385 279.54 6.29189 283.36C6.11885 287.59 2.47498 291.47 2.34266 295.17C2.17981 299.67 5.53868 303.81 5.39619 307.23C5.17226 314.66 1.7116 313.12 1.58946 319.09L2.5157 319.13Z" fill="white"/>
    <path d="M18.3024 188.47V317.46" stroke="#263238" stroke-miterlimit="10"/>
    <path d="M24.043 201.99L18.0581 207.07L13.1623 200.65" stroke="#263238" stroke-miterlimit="10"/>
    <path d="M24.043 224.44L18.0581 229.52L13.1623 223.1" stroke="#263238" stroke-miterlimit="10"/>
    <path d="M24.043 245.56L18.0581 250.64L13.1623 244.22" stroke="#263238" stroke-miterlimit="10"/>
    <path d="M24.043 270.68L18.0581 275.76L13.1623 269.35" stroke="#263238" stroke-miterlimit="10"/>
    <path d="M24.043 296.07L18.0581 301.15L13.1623 294.74" stroke="#263238" stroke-miterlimit="10"/>
    <path d="M285.282 345.07H334.942C333.986 339.07 330.087 340.15 329.568 330.91C329.304 326.25 333.69 320.49 333.314 314.37C332.998 309.37 327.94 304.17 327.553 298.37C327.197 293.17 331.512 287.37 331.095 281.79C330.698 276.49 325.568 271.41 325.12 265.9C324.672 260.39 328.907 254.69 328.408 249.26C327.909 243.83 322.688 238.84 322.138 233.48C321.588 228.12 325.66 222.05 325.029 216.78C324.367 211.18 318.993 206.35 318.27 201.2C317.456 195.46 321.263 189.33 320.367 184.38C319.278 178.31 313.527 173.92 312.316 169.44C310.066 161.1 310.351 153.06 307.685 152.53C304.845 151.98 304.193 159.86 302.046 168.67C300.957 173.09 295.338 177.58 294.412 183.67C293.669 188.59 297.639 194.57 296.987 200.28C296.407 205.4 291.165 210.28 290.656 215.88C290.178 221.12 294.432 226.88 294.015 232.36C293.608 237.67 288.529 242.74 288.173 248.14C287.816 253.54 292.244 259.2 291.908 264.54C291.572 269.88 286.615 275.16 286.351 280.42C286.086 285.98 290.554 291.6 290.33 296.76C290.096 302.47 285.17 307.76 284.997 312.76C284.773 318.83 289.313 324.43 289.17 329.05C288.865 339.05 284.193 337 284.03 345.05L285.282 345.07Z" fill="#6D51FF"/>
    <path d="M306.606 168.6V342.82" stroke="#263238" stroke-miterlimit="10"/>
    <path d="M314.351 186.86L306.27 193.72L299.654 185.06" stroke="#263238" stroke-miterlimit="10"/>
    <path d="M314.351 217.19L306.27 224.05L299.654 215.38" stroke="#263238" stroke-miterlimit="10"/>
    <path d="M314.351 245.71L306.27 252.56L299.654 243.9" stroke="#263238" stroke-miterlimit="10"/>
    <path d="M314.351 279.64L306.27 286.5L299.654 277.84" stroke="#263238" stroke-miterlimit="10"/>
    <path d="M314.351 313.94L306.27 320.8L299.654 312.13" stroke="#263238" stroke-miterlimit="10"/>
    <path d="M105.832 205.679L99.6055 205.475L95.8669 315.623L102.093 315.827L105.832 205.679Z" fill="#263238" stroke="#263238" stroke-linecap="round" stroke-linejoin="round"/>
    <path d="M131.049 174.77L127.659 175.57V186.59L131.415 187.67L131.049 174.77Z" fill="#6D51FF" stroke="#263238" stroke-linecap="round" stroke-linejoin="round"/>
    <path d="M65.347 168.69L65.5098 206.04L128.555 212.46L127.954 224.28L151.171 204.71L131.049 174.77L130.998 186.6L65.347 168.69Z" fill="#263238" stroke="#263238" stroke-linecap="round" stroke-linejoin="round"/>
    <path d="M65.347 168.69L60.2578 169.25L60.899 207.68L65.5098 206.04L65.347 168.69Z" fill="#6D51FF" stroke="#263238" stroke-linecap="round" stroke-linejoin="round"/>
    <path d="M60.899 207.68L125.685 213.98L128.555 212.46L65.5098 206.04L60.899 207.68Z" fill="#6D51FF" stroke="#263238" stroke-linecap="round" stroke-linejoin="round"/>
    <path d="M125.685 213.98L125.522 224.41L127.954 224.28L128.555 212.46L125.685 213.98Z" fill="#6D51FF" stroke="#263238" stroke-linecap="round" stroke-linejoin="round"/>
    <path d="M1.05 320.89C1.05 320.89 88.7675 278.38 222.145 300.08C326.647 317.08 361.05 361 361.05 361" fill="white"/>
    <path d="M1.05 320.89C1.05 320.89 88.7675 278.38 222.145 300.08C326.647 317.08 361.05 361 361.05 361" stroke="#263238" stroke-linecap="round" stroke-linejoin="round"/>
</svg>
