<svg width="25" height="24" viewBox="0 0 25 24" fill="none" xmlns="http://www.w3.org/2000/svg">
<path fill-rule="evenodd" clip-rule="evenodd" d="M8.75867 4.65811C8.65146 4.25801 8.24021 4.02057 7.84011 4.12778C7.04274 4.34143 6.33814 4.81223 5.83561 5.46714C5.33307 6.12206 5.06068 6.9245 5.06068 7.75C5.06068 8.5755 5.33307 9.37794 5.83561 10.0329C6.33814 10.6878 7.04274 11.1586 7.84011 11.3722C8.24021 11.4794 8.65146 11.242 8.75867 10.8419C8.86588 10.4418 8.62844 10.0305 8.22834 9.92333C7.74992 9.79514 7.32716 9.51266 7.02564 9.11971C6.72412 8.72676 6.56068 8.2453 6.56068 7.75C6.56068 7.2547 6.72412 6.77324 7.02564 6.38029C7.32716 5.98734 7.74992 5.70486 8.22834 5.57667C8.62844 5.46946 8.86588 5.05821 8.75867 4.65811Z" fill="#7D8588"/>
<path fill-rule="evenodd" clip-rule="evenodd" d="M7.56068 14.75C7.56068 14.3358 7.2249 14 6.81068 14H6.50327C5.17433 14 3.97927 14.8091 3.48572 16.043C2.63179 18.1778 4.20401 20.5 6.50327 20.5H6.81068C7.2249 20.5 7.56068 20.1642 7.56068 19.75C7.56068 19.3358 7.2249 19 6.81068 19H6.50327C5.2652 19 4.41863 17.7496 4.87843 16.6001C5.14419 15.9357 5.78768 15.5 6.50327 15.5H6.81068C7.2249 15.5 7.56068 15.1642 7.56068 14.75Z" fill="#7D8588"/>
<path fill-rule="evenodd" clip-rule="evenodd" d="M14.8107 4.5C13.0158 4.5 11.5607 5.95507 11.5607 7.75C11.5607 9.54493 13.0158 11 14.8107 11C16.6056 11 18.0607 9.54493 18.0607 7.75C18.0607 5.95507 16.6056 4.5 14.8107 4.5ZM10.0607 7.75C10.0607 5.12665 12.1873 3 14.8107 3C17.434 3 19.5607 5.12665 19.5607 7.75C19.5607 10.3734 17.434 12.5 14.8107 12.5C12.1873 12.5 10.0607 10.3734 10.0607 7.75Z" fill="#7D8588"/>
<path fill-rule="evenodd" clip-rule="evenodd" d="M11.5204 13.7778H18.101C18.1633 13.7778 18.2062 13.7778 18.2468 13.7787C19.6879 13.8098 20.9836 14.6642 21.5799 15.9765C21.5967 16.0135 21.6136 16.0529 21.6382 16.1102L21.6493 16.1361C21.7005 16.2556 21.7348 16.3356 21.7596 16.3999C22.6868 18.8025 20.9718 21.4033 18.3982 21.4975C18.3294 21.5 18.2423 21.5 18.1122 21.5H11.5092C11.379 21.5 11.292 21.5 11.2231 21.4975C8.64952 21.4033 6.93457 18.8025 7.86178 16.3999C7.88658 16.3356 7.92088 16.2556 7.97216 16.1359L7.9832 16.1102C8.00776 16.0529 8.02463 16.0135 8.04144 15.9765C8.63773 14.6642 9.93346 13.8098 11.3746 13.7787C11.4152 13.7778 11.458 13.7778 11.5204 13.7778ZM11.5288 15.2778C11.4549 15.2778 11.4293 15.2778 11.407 15.2783C10.5423 15.297 9.76485 15.8096 9.40708 16.597C9.39784 16.6174 9.38772 16.6409 9.3586 16.7088C9.29686 16.8529 9.27468 16.905 9.26119 16.9399C8.70486 18.3815 9.73383 19.942 11.278 19.9985C11.3154 19.9999 11.3721 20 11.5288 20H18.0926C18.2493 20 18.3059 19.9999 18.3434 19.9985C19.8875 19.942 20.9165 18.3815 20.3602 16.9399C20.3467 16.905 20.3245 16.8529 20.2628 16.7088C20.2337 16.6409 20.2235 16.6174 20.2143 16.597C19.8565 15.8096 19.0791 15.297 18.2144 15.2783C18.1921 15.2778 18.1665 15.2778 18.0926 15.2778H11.5288Z" fill="#7D8588"/>
</svg>
